<svg width="64" height="64" viewBox="0 0 64 64" fill="none" xmlns="http://www.w3.org/2000/svg">
<rect width="64" height="64" rx="21.2469" fill="#006970"/>
<path fill-rule="evenodd" clip-rule="evenodd" d="M8.64657 16.1939C15.8421 18.2612 20.0012 25.7644 17.936 32.9528C15.8708 40.1411 45.2221 39.9663 38.0265 37.899C30.8309 35.8317 26.6719 28.3286 28.7371 21.1402C30.8023 13.9519 1.45095 14.1266 8.64657 16.1939ZM46.0989 9.80157C54.4367 12.197 59.256 20.8913 56.863 29.2208C54.4699 37.5502 45.7708 42.3606 37.4329 39.9652C29.0951 37.5697 24.2758 28.8755 26.6689 20.546C29.0619 12.2166 37.761 7.40612 46.0989 9.80157ZM31.066 19.3416C31.3387 18.8143 31.9877 18.608 32.5156 18.8808L41.7517 23.6536L49.2334 19.5162C49.7532 19.2289 50.408 19.4171 50.6961 19.9364C50.9839 20.4559 50.796 21.1101 50.2764 21.3974L42.2907 25.8133C41.9761 25.9873 41.5951 25.9926 41.2755 25.8275L31.5279 20.7903C31.0001 20.5175 30.7932 19.8689 31.066 19.3416Z" fill="white"/>
<mask id="path-3-outside-1_611_18" maskUnits="userSpaceOnUse" x="22.2961" y="42.7559" width="23" height="9" fill="black">
<rect fill="white" x="22.2961" y="42.7559" width="23" height="9"/>
<path d="M24.8945 50.7559C24.5986 50.7559 24.373 50.7185 24.2179 50.6438C24.0656 50.5691 23.9622 50.447 23.9076 50.2775C23.8559 50.108 23.8301 49.8825 23.8301 49.6009V45.7311C23.8301 45.4438 23.8559 45.2168 23.9076 45.0502C23.9622 44.8807 24.0656 44.76 24.2179 44.6882C24.373 44.6135 24.5986 44.5762 24.8945 44.5762H26.0796C26.7691 44.5762 27.2991 44.7026 27.6697 44.9554C28.0403 45.2082 28.2256 45.5645 28.2256 46.0241C28.2256 46.2511 28.1739 46.4579 28.0705 46.6447C27.9671 46.8314 27.8306 46.9909 27.6611 47.123C27.4945 47.2552 27.3121 47.3543 27.1138 47.4204V47.4376C27.3666 47.4721 27.595 47.5554 27.799 47.6876C28.003 47.8168 28.1653 47.9864 28.286 48.1961C28.4095 48.4029 28.4713 48.6414 28.4713 48.9114C28.4713 49.3136 28.3736 49.6527 28.1782 49.9285C27.9858 50.2014 27.7186 50.4082 27.3767 50.549C27.0377 50.6869 26.647 50.7559 26.2045 50.7559H24.8945ZM25.222 49.1915C25.222 49.384 25.2565 49.5219 25.3254 49.6052C25.3944 49.6886 25.5236 49.7302 25.7133 49.7302H26.0408C26.3309 49.7302 26.5637 49.6555 26.7389 49.5061C26.917 49.3567 27.0061 49.1528 27.0061 48.8942C27.0061 48.6471 26.9199 48.4532 26.7475 48.3124C26.5751 48.1717 26.3525 48.1013 26.0796 48.1013H26.0839C26.0149 48.1013 25.9632 48.0912 25.9287 48.0711C25.854 48.0223 25.7765 47.9662 25.696 47.903C25.6185 47.837 25.5337 47.758 25.4418 47.666C25.413 47.6287 25.3987 47.6014 25.3987 47.5841C25.3987 47.5612 25.413 47.5339 25.4418 47.5023C25.5337 47.4103 25.6185 47.3313 25.696 47.2652C25.7765 47.1992 25.854 47.1431 25.9287 47.0972C25.969 47.0771 26.0207 47.067 26.0839 47.067H26.0796C26.2491 47.067 26.4042 47.0038 26.545 46.8774C26.6886 46.751 26.7604 46.5528 26.7604 46.2827C26.7604 46.0098 26.6843 45.8288 26.532 45.7397C26.3798 45.6478 26.1844 45.6018 25.946 45.6018H25.7133C25.5236 45.6018 25.3944 45.642 25.3254 45.7225C25.2565 45.8029 25.222 45.9408 25.222 46.1362V49.1915ZM34.1606 44.9166C34.3186 45.1378 34.4794 45.4237 34.6432 45.7742C34.8098 46.1218 34.9707 46.5039 35.1259 46.9205C35.281 47.3371 35.4203 47.7637 35.5439 48.2004C35.6703 48.6342 35.7737 49.0522 35.8541 49.4544C35.9346 49.8566 35.9806 50.2143 35.992 50.5275C35.9949 50.6797 35.926 50.7559 35.7852 50.7559H34.7423C34.6073 50.7559 34.5369 50.6883 34.5312 50.5533C34.5197 50.2315 34.468 49.8408 34.376 49.3812H32.0231C31.9426 49.8293 31.8967 50.2201 31.8852 50.5533C31.8794 50.6883 31.8062 50.7559 31.6654 50.7559H30.6441C30.5924 50.7559 30.5493 50.7415 30.5148 50.7128C30.4803 50.6812 30.4645 50.628 30.4674 50.5533C30.4818 50.2344 30.5277 49.8724 30.6053 49.4673C30.6857 49.0594 30.7892 48.6371 30.9156 48.2004C31.042 47.7637 31.1828 47.3371 31.3379 46.9205C31.493 46.501 31.6539 46.1175 31.8205 45.7699C31.9872 45.4223 32.1495 45.1378 32.3075 44.9166C32.3908 44.7988 32.4784 44.7126 32.5704 44.6581C32.6652 44.6035 32.7815 44.5762 32.9194 44.5762H33.54C33.6808 44.5762 33.7986 44.6035 33.8934 44.6581C33.9882 44.7126 34.0772 44.7988 34.1606 44.9166ZM33.1866 45.9379C32.997 46.2396 32.8232 46.6002 32.6652 47.0196C32.5072 47.4391 32.3707 47.87 32.2558 48.3124H34.1261C34.0054 47.87 33.8661 47.4391 33.7081 47.0196C33.5501 46.6002 33.3849 46.2396 33.2125 45.9379H33.1866ZM39.643 50.5275C39.643 50.6136 39.6257 50.674 39.5913 50.7085C39.5597 50.7401 39.5022 50.7559 39.4189 50.7559H38.5527C38.4723 50.7559 38.4148 50.7401 38.3803 50.7085C38.3458 50.674 38.3286 50.6136 38.3286 50.5275V45.0674C38.3286 44.8979 38.3616 44.7744 38.4277 44.6968C38.4938 44.6164 38.6102 44.5762 38.7768 44.5762H39.1776C39.3241 44.5762 39.462 44.5963 39.5913 44.6365C39.7234 44.6739 39.8628 44.76 40.0093 44.8951C40.1587 45.0301 40.331 45.2398 40.5264 45.5242C40.7246 45.8058 40.9631 46.1908 41.2418 46.6792C41.5089 47.1446 41.723 47.5166 41.8839 47.7953C42.0476 48.074 42.174 48.2866 42.2631 48.4331C42.3522 48.5796 42.4182 48.6845 42.4613 48.7477C42.5073 48.8109 42.5446 48.8626 42.5734 48.9028V45.2657C42.5734 45.1824 42.5863 45.1192 42.6122 45.0761C42.7357 44.8865 42.9066 44.6868 43.125 44.4771C43.1681 44.4426 43.204 44.4253 43.2327 44.4253C43.2643 44.4253 43.2988 44.4426 43.3361 44.4771C43.4539 44.5862 43.553 44.6911 43.6335 44.7916C43.7168 44.8893 43.7886 44.9841 43.849 45.0761C43.8748 45.122 43.8877 45.1852 43.8877 45.2657V50.3982C43.8877 50.5275 43.8633 50.6194 43.8145 50.674C43.7656 50.7286 43.6766 50.7559 43.5473 50.7559H43.1336C43.0101 50.7559 42.8836 50.7357 42.7544 50.6955C42.6251 50.6524 42.4786 50.5576 42.3148 50.4111C42.151 50.2617 41.9571 50.0304 41.733 49.7173C41.5089 49.4041 41.2389 48.9761 40.9229 48.4331C40.6557 47.9705 40.4417 47.6028 40.2808 47.3299C40.1228 47.057 40.0021 46.8515 39.9188 46.7136C39.8355 46.5729 39.7751 46.4752 39.7378 46.4206C39.7004 46.3631 39.6688 46.32 39.643 46.2913V50.5275Z"/>
</mask>
<path d="M24.8945 50.7559C24.5986 50.7559 24.373 50.7185 24.2179 50.6438C24.0656 50.5691 23.9622 50.447 23.9076 50.2775C23.8559 50.108 23.8301 49.8825 23.8301 49.6009V45.7311C23.8301 45.4438 23.8559 45.2168 23.9076 45.0502C23.9622 44.8807 24.0656 44.76 24.2179 44.6882C24.373 44.6135 24.5986 44.5762 24.8945 44.5762H26.0796C26.7691 44.5762 27.2991 44.7026 27.6697 44.9554C28.0403 45.2082 28.2256 45.5645 28.2256 46.0241C28.2256 46.2511 28.1739 46.4579 28.0705 46.6447C27.9671 46.8314 27.8306 46.9909 27.6611 47.123C27.4945 47.2552 27.3121 47.3543 27.1138 47.4204V47.4376C27.3666 47.4721 27.595 47.5554 27.799 47.6876C28.003 47.8168 28.1653 47.9864 28.286 48.1961C28.4095 48.4029 28.4713 48.6414 28.4713 48.9114C28.4713 49.3136 28.3736 49.6527 28.1782 49.9285C27.9858 50.2014 27.7186 50.4082 27.3767 50.549C27.0377 50.6869 26.647 50.7559 26.2045 50.7559H24.8945ZM25.222 49.1915C25.222 49.384 25.2565 49.5219 25.3254 49.6052C25.3944 49.6886 25.5236 49.7302 25.7133 49.7302H26.0408C26.3309 49.7302 26.5637 49.6555 26.7389 49.5061C26.917 49.3567 27.0061 49.1528 27.0061 48.8942C27.0061 48.6471 26.9199 48.4532 26.7475 48.3124C26.5751 48.1717 26.3525 48.1013 26.0796 48.1013H26.0839C26.0149 48.1013 25.9632 48.0912 25.9287 48.0711C25.854 48.0223 25.7765 47.9662 25.696 47.903C25.6185 47.837 25.5337 47.758 25.4418 47.666C25.413 47.6287 25.3987 47.6014 25.3987 47.5841C25.3987 47.5612 25.413 47.5339 25.4418 47.5023C25.5337 47.4103 25.6185 47.3313 25.696 47.2652C25.7765 47.1992 25.854 47.1431 25.9287 47.0972C25.969 47.0771 26.0207 47.067 26.0839 47.067H26.0796C26.2491 47.067 26.4042 47.0038 26.545 46.8774C26.6886 46.751 26.7604 46.5528 26.7604 46.2827C26.7604 46.0098 26.6843 45.8288 26.532 45.7397C26.3798 45.6478 26.1844 45.6018 25.946 45.6018H25.7133C25.5236 45.6018 25.3944 45.642 25.3254 45.7225C25.2565 45.8029 25.222 45.9408 25.222 46.1362V49.1915ZM34.1606 44.9166C34.3186 45.1378 34.4794 45.4237 34.6432 45.7742C34.8098 46.1218 34.9707 46.5039 35.1259 46.9205C35.281 47.3371 35.4203 47.7637 35.5439 48.2004C35.6703 48.6342 35.7737 49.0522 35.8541 49.4544C35.9346 49.8566 35.9806 50.2143 35.992 50.5275C35.9949 50.6797 35.926 50.7559 35.7852 50.7559H34.7423C34.6073 50.7559 34.5369 50.6883 34.5312 50.5533C34.5197 50.2315 34.468 49.8408 34.376 49.3812H32.0231C31.9426 49.8293 31.8967 50.2201 31.8852 50.5533C31.8794 50.6883 31.8062 50.7559 31.6654 50.7559H30.6441C30.5924 50.7559 30.5493 50.7415 30.5148 50.7128C30.4803 50.6812 30.4645 50.628 30.4674 50.5533C30.4818 50.2344 30.5277 49.8724 30.6053 49.4673C30.6857 49.0594 30.7892 48.6371 30.9156 48.2004C31.042 47.7637 31.1828 47.3371 31.3379 46.9205C31.493 46.501 31.6539 46.1175 31.8205 45.7699C31.9872 45.4223 32.1495 45.1378 32.3075 44.9166C32.3908 44.7988 32.4784 44.7126 32.5704 44.6581C32.6652 44.6035 32.7815 44.5762 32.9194 44.5762H33.54C33.6808 44.5762 33.7986 44.6035 33.8934 44.6581C33.9882 44.7126 34.0772 44.7988 34.1606 44.9166ZM33.1866 45.9379C32.997 46.2396 32.8232 46.6002 32.6652 47.0196C32.5072 47.4391 32.3707 47.87 32.2558 48.3124H34.1261C34.0054 47.87 33.8661 47.4391 33.7081 47.0196C33.5501 46.6002 33.3849 46.2396 33.2125 45.9379H33.1866ZM39.643 50.5275C39.643 50.6136 39.6257 50.674 39.5913 50.7085C39.5597 50.7401 39.5022 50.7559 39.4189 50.7559H38.5527C38.4723 50.7559 38.4148 50.7401 38.3803 50.7085C38.3458 50.674 38.3286 50.6136 38.3286 50.5275V45.0674C38.3286 44.8979 38.3616 44.7744 38.4277 44.6968C38.4938 44.6164 38.6102 44.5762 38.7768 44.5762H39.1776C39.3241 44.5762 39.462 44.5963 39.5913 44.6365C39.7234 44.6739 39.8628 44.76 40.0093 44.8951C40.1587 45.0301 40.331 45.2398 40.5264 45.5242C40.7246 45.8058 40.9631 46.1908 41.2418 46.6792C41.5089 47.1446 41.723 47.5166 41.8839 47.7953C42.0476 48.074 42.174 48.2866 42.2631 48.4331C42.3522 48.5796 42.4182 48.6845 42.4613 48.7477C42.5073 48.8109 42.5446 48.8626 42.5734 48.9028V45.2657C42.5734 45.1824 42.5863 45.1192 42.6122 45.0761C42.7357 44.8865 42.9066 44.6868 43.125 44.4771C43.1681 44.4426 43.204 44.4253 43.2327 44.4253C43.2643 44.4253 43.2988 44.4426 43.3361 44.4771C43.4539 44.5862 43.553 44.6911 43.6335 44.7916C43.7168 44.8893 43.7886 44.9841 43.849 45.0761C43.8748 45.122 43.8877 45.1852 43.8877 45.2657V50.3982C43.8877 50.5275 43.8633 50.6194 43.8145 50.674C43.7656 50.7286 43.6766 50.7559 43.5473 50.7559H43.1336C43.0101 50.7559 42.8836 50.7357 42.7544 50.6955C42.6251 50.6524 42.4786 50.5576 42.3148 50.4111C42.151 50.2617 41.9571 50.0304 41.733 49.7173C41.5089 49.4041 41.2389 48.9761 40.9229 48.4331C40.6557 47.9705 40.4417 47.6028 40.2808 47.3299C40.1228 47.057 40.0021 46.8515 39.9188 46.7136C39.8355 46.5729 39.7751 46.4752 39.7378 46.4206C39.7004 46.3631 39.6688 46.32 39.643 46.2913V50.5275Z" fill="white"/>
<path d="M24.2179 50.6438L23.858 51.3775L23.8634 51.3801L24.2179 50.6438ZM23.9076 50.2775L23.1259 50.516L23.1298 50.528L23.9076 50.2775ZM23.9076 45.0502L23.1297 44.7997L23.1272 44.808L23.9076 45.0502ZM24.2179 44.6882L24.5665 45.4273L24.5724 45.4245L24.2179 44.6882ZM27.6611 47.123L27.1586 46.4785L27.1533 46.4828L27.6611 47.123ZM27.1138 47.4204L26.8554 46.6451L26.2966 46.8314V47.4204H27.1138ZM27.1138 47.4376H26.2966V48.1509L27.0034 48.2473L27.1138 47.4376ZM27.799 47.6876L27.3547 48.3734L27.3615 48.3778L27.799 47.6876ZM28.286 48.1961L27.5776 48.6037L27.5844 48.6151L28.286 48.1961ZM28.1782 49.9285L27.5114 49.4561L27.5104 49.4575L28.1782 49.9285ZM27.3767 50.549L27.6846 51.306L27.6878 51.3046L27.3767 50.549ZM26.7389 49.5061L26.2137 48.88L26.2088 48.8842L26.7389 49.5061ZM25.9287 48.0711L25.4815 48.7551L25.499 48.7665L25.517 48.777L25.9287 48.0711ZM25.696 47.903L25.1661 48.5251L25.1784 48.5356L25.1911 48.5456L25.696 47.903ZM25.4418 47.666L24.794 48.1643L24.8264 48.2063L24.8639 48.2439L25.4418 47.666ZM25.4418 47.5023L24.8639 46.9244L24.8502 46.9382L24.8371 46.9526L25.4418 47.5023ZM25.696 47.2652L25.1773 46.6338L25.1717 46.6384L25.1661 46.6432L25.696 47.2652ZM25.9287 47.0972L25.5633 46.3663L25.5311 46.3824L25.5004 46.4012L25.9287 47.0972ZM26.545 46.8774L26.0051 46.2639L25.999 46.2694L26.545 46.8774ZM26.532 45.7397L26.1096 46.4394L26.1195 46.4451L26.532 45.7397ZM24.8945 50.7559V49.9387C24.779 49.9387 24.6949 49.9312 24.6369 49.9216C24.5773 49.9118 24.5614 49.9022 24.5724 49.9075L24.2179 50.6438L23.8634 51.3801C24.1817 51.5334 24.552 51.573 24.8945 51.573V50.7559ZM24.2179 50.6438L24.5778 49.9102C24.5966 49.9194 24.6243 49.9381 24.6497 49.968C24.6745 49.9973 24.6837 50.0215 24.6855 50.027L23.9076 50.2775L23.1298 50.528C23.2485 50.8968 23.4958 51.1998 23.858 51.3775L24.2179 50.6438ZM23.9076 50.2775L24.6892 50.0391C24.6708 49.9785 24.6472 49.8433 24.6472 49.6009H23.8301H23.0129C23.0129 49.9217 23.041 50.2375 23.126 50.516L23.9076 50.2775ZM23.8301 49.6009H24.6472V45.7311H23.8301H23.0129V49.6009H23.8301ZM23.8301 45.7311H24.6472C24.6472 45.4802 24.6713 45.3464 24.6881 45.2924L23.9076 45.0502L23.1272 44.808C23.0405 45.0873 23.0129 45.4075 23.0129 45.7311H23.8301ZM23.9076 45.0502L24.6855 45.3007C24.6835 45.3068 24.6735 45.333 24.6466 45.3644C24.6189 45.3967 24.5883 45.417 24.5665 45.4273L24.2179 44.6882L23.8693 43.9491C23.4996 44.1235 23.2492 44.4289 23.1298 44.7997L23.9076 45.0502ZM24.2179 44.6882L24.5724 45.4245C24.5614 45.4298 24.5773 45.4203 24.6369 45.4104C24.6949 45.4008 24.779 45.3934 24.8945 45.3934V44.5762V43.759C24.552 43.759 24.1817 43.7986 23.8634 43.9519L24.2179 44.6882ZM24.8945 44.5762V45.3934H26.0796V44.5762V43.759H24.8945V44.5762ZM26.0796 44.5762V45.3934C26.6869 45.3934 27.0292 45.5077 27.2092 45.6305L27.6697 44.9554L28.1302 44.2803C27.569 43.8975 26.8512 43.759 26.0796 43.759V44.5762ZM27.6697 44.9554L27.2092 45.6305C27.3502 45.7266 27.4085 45.8267 27.4085 46.0241H28.2256H29.0428C29.0428 45.3023 28.7305 44.6898 28.1302 44.2803L27.6697 44.9554ZM28.2256 46.0241H27.4085C27.4085 46.1216 27.3877 46.1909 27.3556 46.2488L28.0705 46.6447L28.7854 47.0406C28.9602 46.725 29.0428 46.3806 29.0428 46.0241H28.2256ZM28.0705 46.6447L27.3556 46.2488C27.3059 46.3385 27.2419 46.4136 27.1587 46.4786L27.6611 47.123L28.1636 47.7675C28.4193 47.5681 28.6282 47.3243 28.7854 47.0406L28.0705 46.6447ZM27.6611 47.123L27.1533 46.4828C27.06 46.5568 26.9617 46.6097 26.8554 46.6451L27.1138 47.4204L27.3722 48.1956C27.6625 48.0989 27.929 47.9536 28.1689 47.7633L27.6611 47.123ZM27.1138 47.4204H26.2966V47.4376H27.1138H27.931V47.4204H27.1138ZM27.1138 47.4376L27.0034 48.2473C27.1432 48.2664 27.2566 48.3098 27.3547 48.3734L27.799 47.6876L28.2434 47.0017C27.9335 46.801 27.59 46.6778 27.2242 46.6279L27.1138 47.4376ZM27.799 47.6876L27.3615 48.3778C27.4534 48.436 27.5229 48.5084 27.5777 48.6036L28.286 48.1961L28.9943 47.7885C28.8077 47.4643 28.5525 47.1977 28.2365 46.9973L27.799 47.6876ZM28.286 48.1961L27.5844 48.6151C27.6234 48.6804 27.6541 48.7706 27.6541 48.9114H28.4713H29.2885C29.2885 48.5121 29.1956 48.1254 28.9876 47.7771L28.286 48.1961ZM28.4713 48.9114H27.6541C27.6541 49.1774 27.5915 49.343 27.5114 49.4561L28.1782 49.9285L28.8451 50.4008C29.1557 49.9623 29.2885 49.4499 29.2885 48.9114H28.4713ZM28.1782 49.9285L27.5104 49.4575C27.4168 49.5902 27.2798 49.7051 27.0655 49.7934L27.3767 50.549L27.6878 51.3046C28.1573 51.1113 28.5547 50.8125 28.8461 50.3994L28.1782 49.9285ZM27.3767 50.549L27.0688 49.792C26.8457 49.8828 26.5629 49.9387 26.2045 49.9387V50.7559V51.573C26.731 51.573 27.2297 51.491 27.6846 51.306L27.3767 50.549ZM26.2045 50.7559V49.9387H24.8945V50.7559V51.573H26.2045V50.7559ZM25.222 49.1915H24.4048C24.4048 49.4416 24.4418 49.8193 24.6959 50.1263L25.3254 49.6052L25.955 49.0842C26.0188 49.1614 26.0372 49.2273 26.0406 49.2411C26.0442 49.2552 26.0392 49.2428 26.0392 49.1915H25.222ZM25.3254 49.6052L24.6959 50.1263C25.0047 50.4995 25.4548 50.5474 25.7133 50.5474V49.7302V48.913C25.6725 48.913 25.6834 48.9078 25.7247 48.9212C25.7705 48.9359 25.8676 48.9787 25.955 49.0842L25.3254 49.6052ZM25.7133 49.7302V50.5474H26.0408V49.7302V48.913H25.7133V49.7302ZM26.0408 49.7302V50.5474C26.4733 50.5474 26.9106 50.4335 27.269 50.128L26.7389 49.5061L26.2088 48.8842C26.2083 48.8846 26.2031 48.8897 26.1832 48.8961C26.161 48.9032 26.1165 48.913 26.0408 48.913V49.7302ZM26.7389 49.5061L27.264 50.1323C27.6495 49.809 27.8233 49.3638 27.8233 48.8942H27.0061H26.1889C26.1889 48.912 26.1874 48.9211 26.1869 48.9234C26.1866 48.9253 26.1871 48.9216 26.1904 48.9141C26.1937 48.9065 26.1984 48.8984 26.204 48.891C26.2066 48.8875 26.209 48.8848 26.2108 48.8829C26.2127 48.8809 26.2138 48.88 26.2138 48.88L26.7389 49.5061ZM27.0061 48.8942H27.8233C27.8233 48.4324 27.6494 47.9939 27.2644 47.6795L26.7475 48.3124L26.2306 48.9454C26.228 48.9433 26.2216 48.9375 26.214 48.9276C26.2062 48.9175 26.1996 48.9063 26.1947 48.8953C26.1843 48.872 26.1889 48.8664 26.1889 48.8942H27.0061ZM26.7475 48.3124L27.2644 47.6795C26.9153 47.3944 26.4969 47.2841 26.0796 47.2841V48.1013V48.9185C26.1462 48.9185 26.1854 48.9271 26.2049 48.9332C26.2225 48.9388 26.2285 48.9436 26.2306 48.9454L26.7475 48.3124ZM26.0796 48.1013V48.9185H26.0839V48.1013V47.2841H26.0796V48.1013ZM26.0839 48.1013V47.2841C26.0867 47.2841 26.1109 47.2841 26.1494 47.2916C26.1864 47.2988 26.2577 47.3169 26.3405 47.3652L25.9287 48.0711L25.517 48.777C25.7372 48.9054 25.9622 48.9185 26.0839 48.9185V48.1013ZM25.9287 48.0711L26.3759 47.3871C26.3237 47.353 26.2654 47.3111 26.2009 47.2605L25.696 47.903L25.1911 48.5456C25.2876 48.6214 25.3844 48.6916 25.4815 48.7551L25.9287 48.0711ZM25.696 47.903L26.2259 47.281C26.1687 47.2322 26.1001 47.1687 26.0196 47.0882L25.4418 47.666L24.8639 48.2439C24.9673 48.3472 25.0682 48.4417 25.1661 48.5251L25.696 47.903ZM25.4418 47.666L26.0895 47.1678C26.0904 47.1689 26.1099 47.1938 26.1326 47.2369C26.1444 47.2594 26.1628 47.2974 26.1791 47.3481C26.1948 47.3967 26.2159 47.479 26.2159 47.5841H25.3987H24.5815C24.5815 47.7926 24.659 47.9462 24.6863 47.9981C24.7234 48.0686 24.7644 48.1258 24.794 48.1643L25.4418 47.666ZM25.3987 47.5841H26.2159C26.2159 47.7428 26.167 47.8617 26.1326 47.927C26.0979 47.9929 26.0622 48.0347 26.0464 48.052L25.4418 47.5023L24.8371 46.9526C24.7758 47.02 24.5815 47.2433 24.5815 47.5841H25.3987ZM25.4418 47.5023L26.0196 48.0801C26.1001 47.9996 26.1687 47.9361 26.2259 47.8873L25.696 47.2652L25.1661 46.6432C25.0682 46.7266 24.9673 46.8211 24.8639 46.9244L25.4418 47.5023ZM25.696 47.2652L26.2147 47.8967C26.2717 47.8499 26.3191 47.8165 26.357 47.7931L25.9287 47.0972L25.5004 46.4012C25.389 46.4698 25.2813 46.5484 25.1773 46.6338L25.696 47.2652ZM25.9287 47.0972L26.2942 47.8281C26.1845 47.883 26.0993 47.8842 26.0839 47.8842V47.067V46.2498C25.9421 46.2498 25.7534 46.2712 25.5633 46.3663L25.9287 47.0972ZM26.0839 47.067V46.2498H26.0796V47.067V47.8842H26.0839V47.067ZM26.0796 47.067V47.8842C26.4745 47.8842 26.819 47.7297 27.091 47.4854L26.545 46.8774L25.999 46.2694C25.9897 46.2777 25.9946 46.271 26.0147 46.2628C26.0362 46.254 26.0599 46.2498 26.0796 46.2498V47.067ZM26.545 46.8774L27.0848 47.4909C27.4679 47.1538 27.5776 46.6878 27.5776 46.2827H26.7604H25.9433C25.9433 46.3482 25.9342 46.3668 25.9383 46.3555C25.9407 46.349 25.9466 46.335 25.9584 46.3172C25.9704 46.2991 25.9862 46.2806 26.0051 46.2639L26.545 46.8774ZM26.7604 46.2827H27.5776C27.5776 45.8895 27.4659 45.3392 26.9446 45.0343L26.532 45.7397L26.1195 46.4451C26.0773 46.4204 26.0392 46.3883 26.008 46.3515C25.9775 46.3153 25.9597 46.282 25.9501 46.2591C25.9329 46.2183 25.9433 46.2155 25.9433 46.2827H26.7604ZM26.532 45.7397L26.9544 45.0401C26.6384 44.8493 26.2842 44.7846 25.946 44.7846V45.6018V46.419C26.0847 46.419 26.1212 46.4463 26.1097 46.4393L26.532 45.7397ZM25.946 45.6018V44.7846H25.7133V45.6018V46.419H25.946V45.6018ZM25.7133 45.6018V44.7846C25.4618 44.7846 25.0157 44.8281 24.705 45.1907L25.3254 45.7225L25.9459 46.2543C25.856 46.3591 25.7587 46.3993 25.7169 46.4123C25.6784 46.4242 25.6705 46.419 25.7133 46.419V45.6018ZM25.3254 45.7225L24.705 45.1907C24.4388 45.5012 24.4048 45.8913 24.4048 46.1362H25.222H26.0392C26.0392 46.0823 26.0444 46.0695 26.0406 46.0844C26.0371 46.0984 26.0172 46.1711 25.9459 46.2543L25.3254 45.7225ZM25.222 46.1362H24.4048V49.1915H25.222H26.0392V46.1362H25.222ZM34.1606 44.9166L33.4934 45.3885L33.4956 45.3916L34.1606 44.9166ZM34.6432 45.7742L33.9028 46.1201L33.9063 46.1274L34.6432 45.7742ZM35.5439 48.2004L34.7575 48.4228L34.7593 48.429L35.5439 48.2004ZM35.992 50.5275L36.8091 50.512L36.809 50.5048L36.8087 50.4975L35.992 50.5275ZM34.5312 50.5533L33.7145 50.5825L33.7147 50.5881L34.5312 50.5533ZM34.376 49.3812L35.1773 49.2209L35.046 48.564H34.376V49.3812ZM32.0231 49.3812V48.564H31.3395L31.2188 49.2368L32.0231 49.3812ZM31.8852 50.5533L32.7017 50.5881L32.7019 50.5815L31.8852 50.5533ZM30.5148 50.7128L29.9626 51.3152L29.9768 51.3282L29.9916 51.3405L30.5148 50.7128ZM30.4674 50.5533L29.651 50.5165L29.6508 50.5219L30.4674 50.5533ZM30.6053 49.4673L29.8035 49.3093L29.8027 49.3137L30.6053 49.4673ZM31.3379 46.9205L32.1037 47.2057L32.1043 47.204L31.3379 46.9205ZM32.3075 44.9166L32.9725 45.3916L32.9747 45.3885L32.3075 44.9166ZM32.5704 44.6581L32.1626 43.9498L32.1532 43.9554L32.5704 44.6581ZM33.1866 45.9379V45.1208H32.7351L32.4948 45.5031L33.1866 45.9379ZM32.2558 48.3124L31.4649 48.107L31.1992 49.1296H32.2558V48.3124ZM34.1261 48.3124V49.1296H35.196L34.9145 48.0974L34.1261 48.3124ZM33.2125 45.9379L33.922 45.5325L33.6867 45.1208H33.2125V45.9379ZM34.1606 44.9166L33.4956 45.3916C33.6153 45.5592 33.7521 45.7976 33.9028 46.1201L34.6432 45.7742L35.3836 45.4283C35.2068 45.0498 35.0219 44.7165 34.8255 44.4416L34.1606 44.9166ZM34.6432 45.7742L33.9063 46.1274C34.0608 46.4498 34.2122 46.8088 34.3601 47.2057L35.1259 46.9205L35.8917 46.6353C35.7292 46.199 35.5589 45.7939 35.3801 45.421L34.6432 45.7742ZM35.1259 46.9205L34.3601 47.2057C34.5073 47.6012 34.6399 48.0069 34.7575 48.4228L35.5439 48.2004L36.3302 47.9779C36.2008 47.5205 36.0546 47.0729 35.8917 46.6353L35.1259 46.9205ZM35.5439 48.2004L34.7593 48.429C34.8798 48.8425 34.9774 49.2377 35.0528 49.6147L35.8541 49.4544L36.6555 49.2942C36.57 48.8668 36.4608 48.4259 36.3284 47.9718L35.5439 48.2004ZM35.8541 49.4544L35.0528 49.6147C35.1271 49.9863 35.1659 50.299 35.1754 50.5574L35.992 50.5275L36.8087 50.4975C36.7952 50.1296 36.742 49.727 36.6555 49.2942L35.8541 49.4544ZM35.992 50.5275L35.175 50.5429C35.1744 50.5098 35.177 50.3266 35.3368 50.1502C35.5082 49.9609 35.7137 49.9387 35.7852 49.9387V50.7559V51.573C35.9975 51.573 36.3078 51.5128 36.5482 51.2473C36.7769 50.9948 36.8126 50.6974 36.8091 50.512L35.992 50.5275ZM35.7852 50.7559V49.9387H34.7423V50.7559V51.573H35.7852V50.7559ZM34.7423 50.7559V49.9387C34.8036 49.9387 34.9866 49.9549 35.1539 50.1155C35.3212 50.2759 35.345 50.4578 35.3476 50.5186L34.5312 50.5533L33.7147 50.5881C33.723 50.7838 33.7849 51.067 34.0226 51.295C34.2603 51.523 34.5461 51.573 34.7423 51.573V50.7559ZM34.5312 50.5533L35.3478 50.5242C35.3342 50.1434 35.2744 49.7062 35.1773 49.2209L34.376 49.3812L33.5747 49.5414C33.6615 49.9755 33.7051 50.3197 33.7145 50.5825L34.5312 50.5533ZM34.376 49.3812V48.564H32.0231V49.3812V50.1984H34.376V49.3812ZM32.0231 49.3812L31.2188 49.2368C31.1337 49.7105 31.0817 50.1418 31.0685 50.5252L31.8852 50.5533L32.7019 50.5815C32.7117 50.2984 32.7516 49.9481 32.8274 49.5255L32.0231 49.3812ZM31.8852 50.5533L31.0687 50.5186C31.0717 50.4491 31.0997 50.2632 31.2721 50.1043C31.4389 49.9506 31.6153 49.9387 31.6654 49.9387V50.7559V51.573C31.8563 51.573 32.1397 51.5273 32.3797 51.3061C32.6254 51.0798 32.6929 50.7926 32.7016 50.5881L31.8852 50.5533ZM31.6654 50.7559V49.9387H30.6441V50.7559V51.573H31.6654V50.7559ZM30.6441 50.7559V49.9387C30.7528 49.9387 30.9036 49.973 31.038 50.085L30.5148 50.7128L29.9916 51.3405C30.195 51.51 30.4319 51.573 30.6441 51.573V50.7559ZM30.5148 50.7128L31.067 50.1104C31.2925 50.3171 31.2849 50.5614 31.284 50.5847L30.4674 50.5533L29.6508 50.5219C29.6442 50.6946 29.6681 51.0452 29.9626 51.3152L30.5148 50.7128ZM30.4674 50.5533L31.2838 50.5901C31.2959 50.3198 31.3357 49.998 31.4079 49.621L30.6053 49.4673L29.8027 49.3137C29.7197 49.7468 29.6676 50.149 29.651 50.5165L30.4674 50.5533ZM30.6053 49.4673L31.407 49.6254C31.4825 49.2428 31.5801 48.8436 31.7005 48.4276L30.9156 48.2004L30.1306 47.9732C29.9982 48.4306 29.889 48.876 29.8035 49.3093L30.6053 49.4673ZM30.9156 48.2004L31.7005 48.4276C31.8214 48.01 31.9558 47.6028 32.1037 47.2057L31.3379 46.9205L30.5721 46.6353C30.4097 47.0714 30.2626 47.5174 30.1306 47.9732L30.9156 48.2004ZM31.3379 46.9205L32.1043 47.204C32.2521 46.8046 32.4033 46.4447 32.5575 46.1231L31.8205 45.7699L31.0836 45.4167C30.9045 45.7903 30.734 46.1975 30.5714 46.637L31.3379 46.9205ZM31.8205 45.7699L32.5575 46.1231C32.7114 45.802 32.8506 45.5622 32.9725 45.3916L32.3075 44.9166L31.6425 44.4416C31.4484 44.7135 31.263 45.0425 31.0836 45.4167L31.8205 45.7699ZM32.3075 44.9166L32.9747 45.3885C32.993 45.3626 33.0049 45.35 33.0088 45.3462C33.0125 45.3426 33.0059 45.3498 32.9876 45.3607L32.5704 44.6581L32.1532 43.9554C31.9346 44.0852 31.768 44.2642 31.6403 44.4447L32.3075 44.9166ZM32.5704 44.6581L32.9781 45.3663C32.9205 45.3994 32.8879 45.3934 32.9194 45.3934V44.5762V43.759C32.6752 43.759 32.4098 43.8075 32.1626 43.9499L32.5704 44.6581ZM32.9194 44.5762V45.3934H33.54V44.5762V43.759H32.9194V44.5762ZM33.54 44.5762V45.3934C33.5778 45.3934 33.5455 45.4007 33.4856 45.3663L33.8934 44.6581L34.3011 43.9499C34.0516 43.8062 33.7837 43.759 33.54 43.759V44.5762ZM33.8934 44.6581L33.4856 45.3663C33.4676 45.3559 33.4605 45.3485 33.463 45.3509C33.4657 45.3535 33.4764 45.3645 33.4934 45.3885L34.1606 44.9166L34.8277 44.4447C34.6969 44.2597 34.5257 44.0792 34.3011 43.9499L33.8934 44.6581ZM33.1866 45.9379L32.4948 45.5031C32.2697 45.8612 32.0731 46.2733 31.9005 46.7315L32.6652 47.0196L33.4299 47.3077C33.5733 46.927 33.7244 46.6181 33.8785 46.3728L33.1866 45.9379ZM32.6652 47.0196L31.9005 46.7315C31.7321 47.1786 31.5869 47.6371 31.4649 48.107L32.2558 48.3124L33.0467 48.5179C33.1545 48.1029 33.2823 47.6995 33.4299 47.3077L32.6652 47.0196ZM32.2558 48.3124V49.1296H34.1261V48.3124V47.4952H32.2558V48.3124ZM34.1261 48.3124L34.9145 48.0974C34.7872 47.6308 34.64 47.1755 34.4728 46.7315L33.7081 47.0196L32.9433 47.3077C33.0921 47.7026 33.2236 48.1092 33.3377 48.5274L34.1261 48.3124ZM33.7081 47.0196L34.4728 46.7315C34.3036 46.2825 34.121 45.8807 33.922 45.5325L33.2125 45.9379L32.503 46.3434C32.6487 46.5985 32.7965 46.9178 32.9433 47.3077L33.7081 47.0196ZM33.2125 45.9379V45.1208H33.1866V45.9379V46.7551H33.2125V45.9379ZM38.3803 50.7085L37.8025 51.2863L37.815 51.2989L37.8281 51.3109L38.3803 50.7085ZM38.4277 44.6968L39.0498 45.2268L39.0545 45.2212L39.0592 45.2155L38.4277 44.6968ZM39.5913 44.6365L39.3485 45.4168L39.3587 45.42L39.369 45.4229L39.5913 44.6365ZM40.0093 44.8951L39.4555 45.496L39.4613 45.5013L40.0093 44.8951ZM40.5264 45.5242L39.8528 45.9869L39.8582 45.9947L40.5264 45.5242ZM41.2418 46.6792L40.532 47.0842L40.5331 47.086L41.2418 46.6792ZM41.8839 47.7953L41.1761 48.2039L41.1793 48.2093L41.8839 47.7953ZM42.4613 48.7477L41.7861 49.208L41.7931 49.2183L41.8004 49.2283L42.4613 48.7477ZM42.5734 48.9028L41.9084 49.3778L43.3906 51.4528V48.9028H42.5734ZM42.6122 45.0761L41.9275 44.63L41.9192 44.6427L41.9114 44.6556L42.6122 45.0761ZM43.125 44.4771L42.6145 43.8389L42.5856 43.8621L42.5589 43.8877L43.125 44.4771ZM43.3361 44.4771L43.8916 43.8777L43.8904 43.8766L43.3361 44.4771ZM43.6335 44.7916L42.9954 45.3021L43.0034 45.3122L43.0117 45.322L43.6335 44.7916ZM43.849 45.0761L44.5612 44.6754L44.5475 44.6511L44.5322 44.6277L43.849 45.0761ZM42.7544 50.6955L42.4959 51.4708L42.5037 51.4734L42.5116 51.4758L42.7544 50.6955ZM42.3148 50.4111L41.764 51.0148L41.7699 51.0201L42.3148 50.4111ZM40.9229 48.4331L40.2152 48.8418L40.2166 48.8442L40.9229 48.4331ZM40.2808 47.3299L39.5735 47.7393L39.5768 47.7449L40.2808 47.3299ZM39.9188 46.7136L39.2155 47.1299L39.2193 47.1362L39.9188 46.7136ZM39.7378 46.4206L39.0526 46.866L39.0579 46.8741L39.0633 46.8821L39.7378 46.4206ZM39.643 46.2913L40.2504 45.7446L38.8258 44.1618V46.2913H39.643ZM39.643 50.5275H38.8258C38.8258 50.5208 38.8259 50.4772 38.8443 50.4129C38.8632 50.3469 38.9082 50.2358 39.0134 50.1306L39.5913 50.7085L40.1691 51.2863C40.4389 51.0165 40.4602 50.6771 40.4602 50.5275H39.643ZM39.5913 50.7085L39.0134 50.1306C39.1257 50.0183 39.2439 49.9736 39.3078 49.9561C39.3714 49.9386 39.414 49.9387 39.4189 49.9387V50.7559V51.573C39.5507 51.573 39.8964 51.559 40.1691 51.2863L39.5913 50.7085ZM39.4189 50.7559V49.9387H38.5527V50.7559V51.573H39.4189V50.7559ZM38.5527 50.7559V49.9387C38.5619 49.9387 38.6044 49.9391 38.666 49.9561C38.7289 49.9734 38.8316 50.0136 38.9325 50.1061L38.3803 50.7085L37.8281 51.3109C38.0899 51.5508 38.4034 51.573 38.5527 51.573V50.7559ZM38.3803 50.7085L38.9582 50.1306C39.0634 50.2358 39.1084 50.3469 39.1273 50.4129C39.1457 50.4772 39.1458 50.5208 39.1458 50.5275H38.3286H37.5114C37.5114 50.6771 37.5327 51.0165 37.8025 51.2863L38.3803 50.7085ZM38.3286 50.5275H39.1458V45.0674H38.3286H37.5114V50.5275H38.3286ZM38.3286 45.0674H39.1458C39.1458 45.0324 39.1496 45.0335 39.1428 45.0588C39.1357 45.0853 39.113 45.1526 39.0498 45.2268L38.4277 44.6968L37.8056 44.1669C37.5534 44.463 37.5114 44.823 37.5114 45.0674H38.3286ZM38.4277 44.6968L39.0592 45.2155C38.9802 45.3117 38.8896 45.3586 38.8315 45.3787C38.7795 45.3967 38.7544 45.3934 38.7768 45.3934V44.5762V43.759C38.5115 43.759 38.091 43.8193 37.7963 44.1781L38.4277 44.6968ZM38.7768 44.5762V45.3934H39.1776V44.5762V43.759H38.7768V44.5762ZM39.1776 44.5762V45.3934C39.2485 45.3934 39.304 45.403 39.3485 45.4168L39.5913 44.6365L39.834 43.8562C39.62 43.7896 39.3997 43.759 39.1776 43.759V44.5762ZM39.5913 44.6365L39.369 45.4229C39.3495 45.4174 39.3479 45.4136 39.365 45.4241C39.3822 45.4348 39.4126 45.4565 39.4555 45.496L40.0093 44.8951L40.5631 44.2941C40.3616 44.1085 40.1122 43.9345 39.8135 43.8501L39.5913 44.6365ZM40.0093 44.8951L39.4613 45.5013C39.5415 45.5738 39.6719 45.7235 39.8528 45.9869L40.5264 45.5242L41.2 45.0616C40.9902 44.7562 40.7758 44.4864 40.5572 44.2888L40.0093 44.8951ZM40.5264 45.5242L39.8582 45.9947C40.0352 46.2461 40.2592 46.6061 40.532 47.0842L41.2418 46.6792L41.9515 46.2742C41.667 45.7754 41.414 45.3655 41.1946 45.0538L40.5264 45.5242ZM41.2418 46.6792L40.5331 47.086C40.8004 47.5517 41.0148 47.9244 41.1761 48.2039L41.8839 47.7953L42.5916 47.3867C42.4312 47.1089 42.2175 46.7375 41.9505 46.2723L41.2418 46.6792ZM41.8839 47.7953L41.1793 48.2093C41.3437 48.489 41.4725 48.7058 41.5648 48.8576L42.2631 48.4331L42.9614 48.0086C42.8755 47.8674 42.7516 47.6589 42.5884 47.3813L41.8839 47.7953ZM42.2631 48.4331L41.5648 48.8576C41.6545 49.0051 41.7301 49.1258 41.7861 49.208L42.4613 48.7477L43.1365 48.2873C43.1064 48.2432 43.0498 48.1541 42.9614 48.0086L42.2631 48.4331ZM42.4613 48.7477L41.8004 49.2283C41.8457 49.2906 41.8816 49.3402 41.9084 49.3778L42.5734 48.9028L43.2383 48.4278C43.2077 48.385 43.1689 48.3312 43.1222 48.267L42.4613 48.7477ZM42.5734 48.9028H43.3906V45.2657H42.5734H41.7562V48.9028H42.5734ZM42.5734 45.2657H43.3906C43.3906 45.2657 43.3906 45.2703 43.3898 45.2788C43.3891 45.2872 43.3874 45.3011 43.3837 45.3196C43.3766 45.3541 43.3589 45.4199 43.3129 45.4965L42.6122 45.0761L41.9114 44.6556C41.7745 44.8838 41.7562 45.1211 41.7562 45.2657H42.5734ZM42.6122 45.0761L43.2968 45.5222C43.3772 45.3988 43.5035 45.2465 43.6911 45.0664L43.125 44.4771L42.5589 43.8877C42.3097 44.127 42.0941 44.3741 41.9275 44.63L42.6122 45.0761ZM43.125 44.4771L43.6355 45.1152C43.6257 45.123 43.5925 45.1488 43.5378 45.175C43.4856 45.2001 43.3786 45.2425 43.2327 45.2425V44.4253V43.6082C42.9114 43.6082 42.6878 43.7803 42.6145 43.8389L43.125 44.4771ZM43.2327 44.4253V45.2425C42.965 45.2425 42.8083 45.102 42.7818 45.0775L43.3361 44.4771L43.8904 43.8766C43.7893 43.7832 43.5636 43.6082 43.2327 43.6082V44.4253ZM43.3361 44.4771L42.7806 45.0764C42.8756 45.1645 42.9455 45.2398 42.9954 45.3021L43.6335 44.7916L44.2716 44.2812C44.1606 44.1424 44.0322 44.008 43.8916 43.8777L43.3361 44.4771ZM43.6335 44.7916L43.0117 45.322C43.0764 45.3978 43.127 45.4653 43.1657 45.5244L43.849 45.0761L44.5322 44.6277C44.4503 44.5029 44.3572 44.3808 44.2552 44.2613L43.6335 44.7916ZM43.849 45.0761L43.1367 45.4767C43.1 45.4114 43.0843 45.3553 43.0774 45.3217C43.0706 45.2881 43.0705 45.2676 43.0705 45.2657H43.8877H44.7049C44.7049 45.1125 44.6828 44.8916 44.5612 44.6754L43.849 45.0761ZM43.8877 45.2657H43.0705V50.3982H43.8877H44.7049V45.2657H43.8877ZM43.8877 50.3982H43.0705C43.0705 50.4155 43.0685 50.3963 43.0796 50.3543C43.0909 50.3118 43.1223 50.222 43.2055 50.1291L43.8145 50.674L44.4235 51.2189C44.6769 50.9357 44.7049 50.589 44.7049 50.3982H43.8877ZM43.8145 50.674L43.2055 50.1291C43.304 50.019 43.4119 49.9724 43.4716 49.9541C43.5282 49.9367 43.5598 49.9387 43.5473 49.9387V50.7559V51.573C43.7423 51.573 44.1354 51.5409 44.4235 51.2189L43.8145 50.674ZM43.5473 50.7559V49.9387H43.1336V50.7559V51.573H43.5473V50.7559ZM43.1336 50.7559V49.9387C43.0999 49.9387 43.0553 49.9333 42.9971 49.9152L42.7544 50.6955L42.5116 51.4758C42.712 51.5382 42.9202 51.573 43.1336 51.573V50.7559ZM42.7544 50.6955L43.0128 49.9203C43.0288 49.9256 43.0222 49.9259 42.9915 49.906C42.9615 49.8867 42.9177 49.854 42.8597 49.8021L42.3148 50.4111L41.7699 51.0201C41.9719 51.2009 42.2157 51.3774 42.4959 51.4708L42.7544 50.6955ZM42.3148 50.4111L42.8656 49.8074C42.764 49.7148 42.6089 49.537 42.3976 49.2417L41.733 49.7173L41.0685 50.1929C41.3054 50.5239 41.5381 50.8087 41.764 51.0148L42.3148 50.4111ZM41.733 49.7173L42.3976 49.2417C42.1947 48.9582 41.9392 48.5548 41.6291 48.022L40.9229 48.4331L40.2166 48.8442C40.5386 49.3974 40.8232 49.8501 41.0685 50.1929L41.733 49.7173ZM40.9229 48.4331L41.6305 48.0243C41.3628 47.5609 41.1474 47.1908 40.9847 46.9149L40.2808 47.3299L39.5768 47.7449C39.7359 48.0148 39.9486 48.3802 40.2152 48.8418L40.9229 48.4331ZM40.2808 47.3299L40.988 46.9204C40.8293 46.6464 40.7056 46.4357 40.6182 46.2911L39.9188 46.7136L39.2193 47.1362C39.2986 47.2674 39.4162 47.4675 39.5735 47.7393L40.2808 47.3299ZM39.9188 46.7136L40.622 46.2974C40.539 46.1571 40.4664 46.0384 40.4122 45.9591L39.7378 46.4206L39.0633 46.8821C39.0838 46.912 39.1319 46.9886 39.2155 47.1299L39.9188 46.7136ZM39.7378 46.4206L40.4229 45.9752C40.3772 45.9048 40.3185 45.8203 40.2504 45.7446L39.643 46.2913L39.0356 46.838C39.0297 46.8315 39.0262 46.8272 39.0253 46.8261C39.0243 46.8248 39.0249 46.8255 39.0271 46.8284C39.0317 46.8347 39.0401 46.8467 39.0526 46.866L39.7378 46.4206ZM39.643 46.2913H38.8258V50.5275H39.643H40.4602V46.2913H39.643Z" fill="#006970" mask="url(#path-3-outside-1_611_18)"/>
</svg>
