<svg width="78" height="104" viewBox="0 0 78 104" fill="none" xmlns="http://www.w3.org/2000/svg">
<rect x="7" width="64" height="64" rx="21.2469" fill="#006970"/>
<path fill-rule="evenodd" clip-rule="evenodd" d="M15.6466 16.1939C22.8421 18.2612 27.0012 25.7644 24.936 32.9528C22.8708 40.1411 52.2221 39.9663 45.0265 37.899C37.8309 35.8317 33.6719 28.3286 35.7371 21.1402C37.8023 13.9519 8.45095 14.1266 15.6466 16.1939ZM53.0989 9.80157C61.4367 12.197 66.256 20.8913 63.863 29.2208C61.4699 37.5502 52.7708 42.3606 44.4329 39.9652C36.0951 37.5697 31.2758 28.8755 33.6689 20.546C36.0619 12.2166 44.761 7.40612 53.0989 9.80157ZM38.066 19.3416C38.3387 18.8143 38.9877 18.608 39.5156 18.8808L48.7517 23.6536L56.2334 19.5162C56.7532 19.2289 57.408 19.4171 57.6961 19.9364C57.9839 20.4559 57.796 21.1101 57.2764 21.3974L49.2907 25.8133C48.9761 25.9873 48.5951 25.9926 48.2755 25.8275L38.5279 20.7903C38.0001 20.5175 37.7932 19.8689 38.066 19.3416Z" fill="white"/>
<mask id="path-3-outside-1_48_411" maskUnits="userSpaceOnUse" x="29.2961" y="42.7559" width="23" height="9" fill="black">
<rect fill="white" x="29.2961" y="42.7559" width="23" height="9"/>
<path d="M31.8945 50.7559C31.5986 50.7559 31.373 50.7185 31.2179 50.6438C31.0656 50.5691 30.9622 50.447 30.9076 50.2775C30.8559 50.108 30.8301 49.8825 30.8301 49.6009V45.7311C30.8301 45.4438 30.8559 45.2168 30.9076 45.0502C30.9622 44.8807 31.0656 44.76 31.2179 44.6882C31.373 44.6135 31.5986 44.5762 31.8945 44.5762H33.0796C33.7691 44.5762 34.2991 44.7026 34.6697 44.9554C35.0403 45.2082 35.2256 45.5645 35.2256 46.0241C35.2256 46.2511 35.1739 46.4579 35.0705 46.6447C34.9671 46.8314 34.8306 46.9909 34.6611 47.123C34.4945 47.2552 34.3121 47.3543 34.1138 47.4204V47.4376C34.3666 47.4721 34.595 47.5554 34.799 47.6876C35.003 47.8168 35.1653 47.9864 35.286 48.1961C35.4095 48.4029 35.4713 48.6414 35.4713 48.9114C35.4713 49.3136 35.3736 49.6527 35.1782 49.9285C34.9858 50.2014 34.7186 50.4082 34.3767 50.549C34.0377 50.6869 33.647 50.7559 33.2045 50.7559H31.8945ZM32.222 49.1915C32.222 49.384 32.2565 49.5219 32.3254 49.6052C32.3944 49.6886 32.5236 49.7302 32.7133 49.7302H33.0408C33.3309 49.7302 33.5637 49.6555 33.7389 49.5061C33.917 49.3567 34.0061 49.1528 34.0061 48.8942C34.0061 48.6471 33.9199 48.4532 33.7475 48.3124C33.5751 48.1717 33.3525 48.1013 33.0796 48.1013H33.0839C33.0149 48.1013 32.9632 48.0912 32.9287 48.0711C32.854 48.0223 32.7765 47.9662 32.696 47.903C32.6185 47.837 32.5337 47.758 32.4418 47.666C32.413 47.6287 32.3987 47.6014 32.3987 47.5841C32.3987 47.5612 32.413 47.5339 32.4418 47.5023C32.5337 47.4103 32.6185 47.3313 32.696 47.2652C32.7765 47.1992 32.854 47.1431 32.9287 47.0972C32.969 47.0771 33.0207 47.067 33.0839 47.067H33.0796C33.2491 47.067 33.4042 47.0038 33.545 46.8774C33.6886 46.751 33.7604 46.5528 33.7604 46.2827C33.7604 46.0098 33.6843 45.8288 33.532 45.7397C33.3798 45.6478 33.1844 45.6018 32.946 45.6018H32.7133C32.5236 45.6018 32.3944 45.642 32.3254 45.7225C32.2565 45.8029 32.222 45.9408 32.222 46.1362V49.1915ZM41.1606 44.9166C41.3186 45.1378 41.4794 45.4237 41.6432 45.7742C41.8098 46.1218 41.9707 46.5039 42.1259 46.9205C42.281 47.3371 42.4203 47.7637 42.5439 48.2004C42.6703 48.6342 42.7737 49.0522 42.8541 49.4544C42.9346 49.8566 42.9806 50.2143 42.992 50.5275C42.9949 50.6797 42.926 50.7559 42.7852 50.7559H41.7423C41.6073 50.7559 41.5369 50.6883 41.5312 50.5533C41.5197 50.2315 41.468 49.8408 41.376 49.3812H39.0231C38.9426 49.8293 38.8967 50.2201 38.8852 50.5533C38.8794 50.6883 38.8062 50.7559 38.6654 50.7559H37.6441C37.5924 50.7559 37.5493 50.7415 37.5148 50.7128C37.4803 50.6812 37.4645 50.628 37.4674 50.5533C37.4818 50.2344 37.5277 49.8724 37.6053 49.4673C37.6857 49.0594 37.7892 48.6371 37.9156 48.2004C38.042 47.7637 38.1828 47.3371 38.3379 46.9205C38.493 46.501 38.6539 46.1175 38.8205 45.7699C38.9872 45.4223 39.1495 45.1378 39.3075 44.9166C39.3908 44.7988 39.4784 44.7126 39.5704 44.6581C39.6652 44.6035 39.7815 44.5762 39.9194 44.5762H40.54C40.6808 44.5762 40.7986 44.6035 40.8934 44.6581C40.9882 44.7126 41.0772 44.7988 41.1606 44.9166ZM40.1866 45.9379C39.997 46.2396 39.8232 46.6002 39.6652 47.0196C39.5072 47.4391 39.3707 47.87 39.2558 48.3124H41.1261C41.0054 47.87 40.8661 47.4391 40.7081 47.0196C40.5501 46.6002 40.3849 46.2396 40.2125 45.9379H40.1866ZM46.643 50.5275C46.643 50.6136 46.6257 50.674 46.5913 50.7085C46.5597 50.7401 46.5022 50.7559 46.4189 50.7559H45.5527C45.4723 50.7559 45.4148 50.7401 45.3803 50.7085C45.3458 50.674 45.3286 50.6136 45.3286 50.5275V45.0674C45.3286 44.8979 45.3616 44.7744 45.4277 44.6968C45.4938 44.6164 45.6102 44.5762 45.7768 44.5762H46.1776C46.3241 44.5762 46.462 44.5963 46.5913 44.6365C46.7234 44.6739 46.8628 44.76 47.0093 44.8951C47.1587 45.0301 47.331 45.2398 47.5264 45.5242C47.7246 45.8058 47.9631 46.1908 48.2418 46.6792C48.5089 47.1446 48.723 47.5166 48.8839 47.7953C49.0476 48.074 49.174 48.2866 49.2631 48.4331C49.3522 48.5796 49.4182 48.6845 49.4613 48.7477C49.5073 48.8109 49.5446 48.8626 49.5734 48.9028V45.2657C49.5734 45.1824 49.5863 45.1192 49.6122 45.0761C49.7357 44.8865 49.9066 44.6868 50.125 44.4771C50.1681 44.4426 50.204 44.4253 50.2327 44.4253C50.2643 44.4253 50.2988 44.4426 50.3361 44.4771C50.4539 44.5862 50.553 44.6911 50.6335 44.7916C50.7168 44.8893 50.7886 44.9841 50.849 45.0761C50.8748 45.122 50.8877 45.1852 50.8877 45.2657V50.3982C50.8877 50.5275 50.8633 50.6194 50.8145 50.674C50.7656 50.7286 50.6766 50.7559 50.5473 50.7559H50.1336C50.0101 50.7559 49.8836 50.7357 49.7544 50.6955C49.6251 50.6524 49.4786 50.5576 49.3148 50.4111C49.151 50.2617 48.9571 50.0304 48.733 49.7173C48.5089 49.4041 48.2389 48.9761 47.9229 48.4331C47.6557 47.9705 47.4417 47.6028 47.2808 47.3299C47.1228 47.057 47.0021 46.8515 46.9188 46.7136C46.8355 46.5729 46.7751 46.4752 46.7378 46.4206C46.7004 46.3631 46.6688 46.32 46.643 46.2913V50.5275Z"/>
</mask>
<path d="M31.8945 50.7559C31.5986 50.7559 31.373 50.7185 31.2179 50.6438C31.0656 50.5691 30.9622 50.447 30.9076 50.2775C30.8559 50.108 30.8301 49.8825 30.8301 49.6009V45.7311C30.8301 45.4438 30.8559 45.2168 30.9076 45.0502C30.9622 44.8807 31.0656 44.76 31.2179 44.6882C31.373 44.6135 31.5986 44.5762 31.8945 44.5762H33.0796C33.7691 44.5762 34.2991 44.7026 34.6697 44.9554C35.0403 45.2082 35.2256 45.5645 35.2256 46.0241C35.2256 46.2511 35.1739 46.4579 35.0705 46.6447C34.9671 46.8314 34.8306 46.9909 34.6611 47.123C34.4945 47.2552 34.3121 47.3543 34.1138 47.4204V47.4376C34.3666 47.4721 34.595 47.5554 34.799 47.6876C35.003 47.8168 35.1653 47.9864 35.286 48.1961C35.4095 48.4029 35.4713 48.6414 35.4713 48.9114C35.4713 49.3136 35.3736 49.6527 35.1782 49.9285C34.9858 50.2014 34.7186 50.4082 34.3767 50.549C34.0377 50.6869 33.647 50.7559 33.2045 50.7559H31.8945ZM32.222 49.1915C32.222 49.384 32.2565 49.5219 32.3254 49.6052C32.3944 49.6886 32.5236 49.7302 32.7133 49.7302H33.0408C33.3309 49.7302 33.5637 49.6555 33.7389 49.5061C33.917 49.3567 34.0061 49.1528 34.0061 48.8942C34.0061 48.6471 33.9199 48.4532 33.7475 48.3124C33.5751 48.1717 33.3525 48.1013 33.0796 48.1013H33.0839C33.0149 48.1013 32.9632 48.0912 32.9287 48.0711C32.854 48.0223 32.7765 47.9662 32.696 47.903C32.6185 47.837 32.5337 47.758 32.4418 47.666C32.413 47.6287 32.3987 47.6014 32.3987 47.5841C32.3987 47.5612 32.413 47.5339 32.4418 47.5023C32.5337 47.4103 32.6185 47.3313 32.696 47.2652C32.7765 47.1992 32.854 47.1431 32.9287 47.0972C32.969 47.0771 33.0207 47.067 33.0839 47.067H33.0796C33.2491 47.067 33.4042 47.0038 33.545 46.8774C33.6886 46.751 33.7604 46.5528 33.7604 46.2827C33.7604 46.0098 33.6843 45.8288 33.532 45.7397C33.3798 45.6478 33.1844 45.6018 32.946 45.6018H32.7133C32.5236 45.6018 32.3944 45.642 32.3254 45.7225C32.2565 45.8029 32.222 45.9408 32.222 46.1362V49.1915ZM41.1606 44.9166C41.3186 45.1378 41.4794 45.4237 41.6432 45.7742C41.8098 46.1218 41.9707 46.5039 42.1259 46.9205C42.281 47.3371 42.4203 47.7637 42.5439 48.2004C42.6703 48.6342 42.7737 49.0522 42.8541 49.4544C42.9346 49.8566 42.9806 50.2143 42.992 50.5275C42.9949 50.6797 42.926 50.7559 42.7852 50.7559H41.7423C41.6073 50.7559 41.5369 50.6883 41.5312 50.5533C41.5197 50.2315 41.468 49.8408 41.376 49.3812H39.0231C38.9426 49.8293 38.8967 50.2201 38.8852 50.5533C38.8794 50.6883 38.8062 50.7559 38.6654 50.7559H37.6441C37.5924 50.7559 37.5493 50.7415 37.5148 50.7128C37.4803 50.6812 37.4645 50.628 37.4674 50.5533C37.4818 50.2344 37.5277 49.8724 37.6053 49.4673C37.6857 49.0594 37.7892 48.6371 37.9156 48.2004C38.042 47.7637 38.1828 47.3371 38.3379 46.9205C38.493 46.501 38.6539 46.1175 38.8205 45.7699C38.9872 45.4223 39.1495 45.1378 39.3075 44.9166C39.3908 44.7988 39.4784 44.7126 39.5704 44.6581C39.6652 44.6035 39.7815 44.5762 39.9194 44.5762H40.54C40.6808 44.5762 40.7986 44.6035 40.8934 44.6581C40.9882 44.7126 41.0772 44.7988 41.1606 44.9166ZM40.1866 45.9379C39.997 46.2396 39.8232 46.6002 39.6652 47.0196C39.5072 47.4391 39.3707 47.87 39.2558 48.3124H41.1261C41.0054 47.87 40.8661 47.4391 40.7081 47.0196C40.5501 46.6002 40.3849 46.2396 40.2125 45.9379H40.1866ZM46.643 50.5275C46.643 50.6136 46.6257 50.674 46.5913 50.7085C46.5597 50.7401 46.5022 50.7559 46.4189 50.7559H45.5527C45.4723 50.7559 45.4148 50.7401 45.3803 50.7085C45.3458 50.674 45.3286 50.6136 45.3286 50.5275V45.0674C45.3286 44.8979 45.3616 44.7744 45.4277 44.6968C45.4938 44.6164 45.6102 44.5762 45.7768 44.5762H46.1776C46.3241 44.5762 46.462 44.5963 46.5913 44.6365C46.7234 44.6739 46.8628 44.76 47.0093 44.8951C47.1587 45.0301 47.331 45.2398 47.5264 45.5242C47.7246 45.8058 47.9631 46.1908 48.2418 46.6792C48.5089 47.1446 48.723 47.5166 48.8839 47.7953C49.0476 48.074 49.174 48.2866 49.2631 48.4331C49.3522 48.5796 49.4182 48.6845 49.4613 48.7477C49.5073 48.8109 49.5446 48.8626 49.5734 48.9028V45.2657C49.5734 45.1824 49.5863 45.1192 49.6122 45.0761C49.7357 44.8865 49.9066 44.6868 50.125 44.4771C50.1681 44.4426 50.204 44.4253 50.2327 44.4253C50.2643 44.4253 50.2988 44.4426 50.3361 44.4771C50.4539 44.5862 50.553 44.6911 50.6335 44.7916C50.7168 44.8893 50.7886 44.9841 50.849 45.0761C50.8748 45.122 50.8877 45.1852 50.8877 45.2657V50.3982C50.8877 50.5275 50.8633 50.6194 50.8145 50.674C50.7656 50.7286 50.6766 50.7559 50.5473 50.7559H50.1336C50.0101 50.7559 49.8836 50.7357 49.7544 50.6955C49.6251 50.6524 49.4786 50.5576 49.3148 50.4111C49.151 50.2617 48.9571 50.0304 48.733 49.7173C48.5089 49.4041 48.2389 48.9761 47.9229 48.4331C47.6557 47.9705 47.4417 47.6028 47.2808 47.3299C47.1228 47.057 47.0021 46.8515 46.9188 46.7136C46.8355 46.5729 46.7751 46.4752 46.7378 46.4206C46.7004 46.3631 46.6688 46.32 46.643 46.2913V50.5275Z" fill="white"/>
<path d="M31.2179 50.6438L30.858 51.3775L30.8634 51.3801L31.2179 50.6438ZM30.9076 50.2775L30.1259 50.516L30.1298 50.528L30.9076 50.2775ZM30.9076 45.0502L30.1297 44.7997L30.1272 44.808L30.9076 45.0502ZM31.2179 44.6882L31.5665 45.4273L31.5724 45.4245L31.2179 44.6882ZM34.6611 47.123L34.1586 46.4785L34.1533 46.4828L34.6611 47.123ZM34.1138 47.4204L33.8554 46.6451L33.2966 46.8314V47.4204H34.1138ZM34.1138 47.4376H33.2966V48.1509L34.0034 48.2473L34.1138 47.4376ZM34.799 47.6876L34.3547 48.3734L34.3615 48.3778L34.799 47.6876ZM35.286 48.1961L34.5776 48.6037L34.5844 48.6151L35.286 48.1961ZM35.1782 49.9285L34.5114 49.4561L34.5104 49.4575L35.1782 49.9285ZM34.3767 50.549L34.6846 51.306L34.6878 51.3046L34.3767 50.549ZM33.7389 49.5061L33.2137 48.88L33.2088 48.8842L33.7389 49.5061ZM32.9287 48.0711L32.4815 48.7551L32.499 48.7665L32.517 48.777L32.9287 48.0711ZM32.696 47.903L32.1661 48.5251L32.1784 48.5356L32.1911 48.5456L32.696 47.903ZM32.4418 47.666L31.794 48.1643L31.8264 48.2063L31.8639 48.2439L32.4418 47.666ZM32.4418 47.5023L31.8639 46.9244L31.8502 46.9382L31.8371 46.9526L32.4418 47.5023ZM32.696 47.2652L32.1773 46.6338L32.1717 46.6384L32.1661 46.6432L32.696 47.2652ZM32.9287 47.0972L32.5633 46.3663L32.5311 46.3824L32.5004 46.4012L32.9287 47.0972ZM33.545 46.8774L33.0051 46.2639L32.999 46.2694L33.545 46.8774ZM33.5321 45.7397L33.1096 46.4394L33.1195 46.4451L33.5321 45.7397ZM31.8945 50.7559V49.9387C31.779 49.9387 31.6949 49.9312 31.6369 49.9216C31.5773 49.9118 31.5614 49.9022 31.5724 49.9075L31.2179 50.6438L30.8634 51.3801C31.1817 51.5334 31.552 51.573 31.8945 51.573V50.7559ZM31.2179 50.6438L31.5778 49.9102C31.5966 49.9194 31.6243 49.9381 31.6497 49.968C31.6745 49.9973 31.6837 50.0215 31.6855 50.027L30.9076 50.2775L30.1298 50.528C30.2485 50.8968 30.4958 51.1998 30.858 51.3775L31.2179 50.6438ZM30.9076 50.2775L31.6892 50.0391C31.6708 49.9785 31.6472 49.8433 31.6472 49.6009H30.8301H30.0129C30.0129 49.9217 30.041 50.2375 30.126 50.516L30.9076 50.2775ZM30.8301 49.6009H31.6472V45.7311H30.8301H30.0129V49.6009H30.8301ZM30.8301 45.7311H31.6472C31.6472 45.4802 31.6713 45.3464 31.6881 45.2924L30.9076 45.0502L30.1272 44.808C30.0405 45.0873 30.0129 45.4075 30.0129 45.7311H30.8301ZM30.9076 45.0502L31.6855 45.3007C31.6835 45.3068 31.6735 45.333 31.6466 45.3644C31.6189 45.3967 31.5883 45.417 31.5665 45.4273L31.2179 44.6882L30.8693 43.9491C30.4996 44.1235 30.2492 44.4289 30.1298 44.7997L30.9076 45.0502ZM31.2179 44.6882L31.5724 45.4245C31.5614 45.4298 31.5773 45.4203 31.6369 45.4104C31.6949 45.4008 31.779 45.3934 31.8945 45.3934V44.5762V43.759C31.552 43.759 31.1817 43.7986 30.8634 43.9519L31.2179 44.6882ZM31.8945 44.5762V45.3934H33.0796V44.5762V43.759H31.8945V44.5762ZM33.0796 44.5762V45.3934C33.6869 45.3934 34.0292 45.5077 34.2092 45.6305L34.6697 44.9554L35.1302 44.2803C34.569 43.8975 33.8512 43.759 33.0796 43.759V44.5762ZM34.6697 44.9554L34.2092 45.6305C34.3502 45.7266 34.4085 45.8267 34.4085 46.0241H35.2256H36.0428C36.0428 45.3023 35.7305 44.6898 35.1302 44.2803L34.6697 44.9554ZM35.2256 46.0241H34.4085C34.4085 46.1216 34.3877 46.1909 34.3556 46.2488L35.0705 46.6447L35.7854 47.0406C35.9602 46.725 36.0428 46.3806 36.0428 46.0241H35.2256ZM35.0705 46.6447L34.3556 46.2488C34.3059 46.3385 34.2419 46.4136 34.1587 46.4786L34.6611 47.123L35.1636 47.7675C35.4193 47.5681 35.6282 47.3243 35.7854 47.0406L35.0705 46.6447ZM34.6611 47.123L34.1533 46.4828C34.06 46.5568 33.9617 46.6097 33.8554 46.6451L34.1138 47.4204L34.3722 48.1956C34.6625 48.0989 34.929 47.9536 35.1689 47.7633L34.6611 47.123ZM34.1138 47.4204H33.2966V47.4376H34.1138H34.931V47.4204H34.1138ZM34.1138 47.4376L34.0034 48.2473C34.1432 48.2664 34.2566 48.3098 34.3547 48.3734L34.799 47.6876L35.2434 47.0017C34.9335 46.801 34.59 46.6778 34.2242 46.6279L34.1138 47.4376ZM34.799 47.6876L34.3615 48.3778C34.4534 48.436 34.5229 48.5084 34.5777 48.6036L35.286 48.1961L35.9943 47.7885C35.8077 47.4643 35.5525 47.1977 35.2365 46.9973L34.799 47.6876ZM35.286 48.1961L34.5844 48.6151C34.6234 48.6804 34.6541 48.7706 34.6541 48.9114H35.4713H36.2885C36.2885 48.5121 36.1956 48.1254 35.9876 47.7771L35.286 48.1961ZM35.4713 48.9114H34.6541C34.6541 49.1774 34.5915 49.343 34.5114 49.4561L35.1782 49.9285L35.8451 50.4008C36.1557 49.9623 36.2885 49.4499 36.2885 48.9114H35.4713ZM35.1782 49.9285L34.5104 49.4575C34.4168 49.5902 34.2798 49.7051 34.0655 49.7934L34.3767 50.549L34.6878 51.3046C35.1573 51.1113 35.5547 50.8125 35.8461 50.3994L35.1782 49.9285ZM34.3767 50.549L34.0688 49.792C33.8457 49.8828 33.5629 49.9387 33.2045 49.9387V50.7559V51.573C33.731 51.573 34.2297 51.491 34.6846 51.306L34.3767 50.549ZM33.2045 50.7559V49.9387H31.8945V50.7559V51.573H33.2045V50.7559ZM32.222 49.1915H31.4048C31.4048 49.4416 31.4418 49.8193 31.6959 50.1263L32.3254 49.6052L32.955 49.0842C33.0188 49.1614 33.0372 49.2273 33.0406 49.2411C33.0442 49.2552 33.0392 49.2428 33.0392 49.1915H32.222ZM32.3254 49.6052L31.6959 50.1263C32.0047 50.4995 32.4548 50.5474 32.7133 50.5474V49.7302V48.913C32.6725 48.913 32.6834 48.9078 32.7247 48.9212C32.7705 48.9359 32.8676 48.9787 32.955 49.0842L32.3254 49.6052ZM32.7133 49.7302V50.5474H33.0408V49.7302V48.913H32.7133V49.7302ZM33.0408 49.7302V50.5474C33.4733 50.5474 33.9106 50.4335 34.269 50.128L33.7389 49.5061L33.2088 48.8842C33.2083 48.8846 33.2031 48.8897 33.1832 48.8961C33.161 48.9032 33.1165 48.913 33.0408 48.913V49.7302ZM33.7389 49.5061L34.264 50.1323C34.6495 49.809 34.8233 49.3638 34.8233 48.8942H34.0061H33.1889C33.1889 48.912 33.1874 48.9211 33.1869 48.9234C33.1866 48.9253 33.1871 48.9216 33.1904 48.9141C33.1937 48.9065 33.1984 48.8984 33.204 48.891C33.2066 48.8875 33.209 48.8848 33.2108 48.8829C33.2127 48.8809 33.2138 48.88 33.2138 48.88L33.7389 49.5061ZM34.0061 48.8942H34.8233C34.8233 48.4324 34.6494 47.9939 34.2644 47.6795L33.7475 48.3124L33.2306 48.9454C33.228 48.9433 33.2216 48.9375 33.214 48.9276C33.2062 48.9175 33.1996 48.9063 33.1947 48.8953C33.1843 48.872 33.1889 48.8664 33.1889 48.8942H34.0061ZM33.7475 48.3124L34.2644 47.6795C33.9153 47.3944 33.4969 47.2841 33.0796 47.2841V48.1013V48.9185C33.1462 48.9185 33.1854 48.9271 33.2049 48.9332C33.2225 48.9388 33.2285 48.9436 33.2306 48.9454L33.7475 48.3124ZM33.0796 48.1013V48.9185H33.0839V48.1013V47.2841H33.0796V48.1013ZM33.0839 48.1013V47.2841C33.0867 47.2841 33.1109 47.2841 33.1494 47.2916C33.1864 47.2988 33.2577 47.3169 33.3405 47.3652L32.9287 48.0711L32.517 48.777C32.7372 48.9054 32.9622 48.9185 33.0839 48.9185V48.1013ZM32.9287 48.0711L33.3759 47.3871C33.3237 47.353 33.2654 47.3111 33.2009 47.2605L32.696 47.903L32.1911 48.5456C32.2876 48.6214 32.3844 48.6916 32.4815 48.7551L32.9287 48.0711ZM32.696 47.903L33.2259 47.281C33.1687 47.2322 33.1001 47.1687 33.0196 47.0882L32.4418 47.666L31.8639 48.2439C31.9673 48.3472 32.0682 48.4417 32.1661 48.5251L32.696 47.903ZM32.4418 47.666L33.0895 47.1678C33.0904 47.1689 33.1099 47.1938 33.1326 47.2369C33.1444 47.2594 33.1628 47.2974 33.1791 47.3481C33.1948 47.3967 33.2159 47.479 33.2159 47.5841H32.3987H31.5815C31.5815 47.7926 31.659 47.9462 31.6863 47.9981C31.7234 48.0686 31.7644 48.1258 31.794 48.1643L32.4418 47.666ZM32.3987 47.5841H33.2159C33.2159 47.7428 33.167 47.8617 33.1326 47.927C33.0979 47.9929 33.0622 48.0347 33.0464 48.052L32.4418 47.5023L31.8371 46.9526C31.7758 47.02 31.5815 47.2433 31.5815 47.5841H32.3987ZM32.4418 47.5023L33.0196 48.0801C33.1001 47.9996 33.1687 47.9361 33.2259 47.8873L32.696 47.2652L32.1661 46.6432C32.0682 46.7266 31.9673 46.8211 31.8639 46.9244L32.4418 47.5023ZM32.696 47.2652L33.2147 47.8967C33.2717 47.8499 33.3191 47.8165 33.357 47.7931L32.9287 47.0972L32.5004 46.4012C32.389 46.4698 32.2813 46.5484 32.1773 46.6338L32.696 47.2652ZM32.9287 47.0972L33.2942 47.8281C33.1845 47.883 33.0993 47.8842 33.0839 47.8842V47.067V46.2498C32.9421 46.2498 32.7534 46.2712 32.5633 46.3663L32.9287 47.0972ZM33.0839 47.067V46.2498H33.0796V47.067V47.8842H33.0839V47.067ZM33.0796 47.067V47.8842C33.4745 47.8842 33.819 47.7297 34.091 47.4854L33.545 46.8774L32.999 46.2694C32.9897 46.2777 32.9946 46.271 33.0147 46.2628C33.0362 46.254 33.0599 46.2498 33.0796 46.2498V47.067ZM33.545 46.8774L34.0848 47.4909C34.4679 47.1538 34.5776 46.6878 34.5776 46.2827H33.7604H32.9433C32.9433 46.3482 32.9342 46.3668 32.9383 46.3555C32.9406 46.349 32.9466 46.335 32.9584 46.3172C32.9704 46.2991 32.9862 46.2806 33.0051 46.2639L33.545 46.8774ZM33.7604 46.2827H34.5776C34.5776 45.8895 34.4659 45.3392 33.9446 45.0343L33.5321 45.7397L33.1195 46.4451C33.0773 46.4204 33.0392 46.3883 33.008 46.3515C32.9775 46.3153 32.9597 46.282 32.9501 46.2591C32.9329 46.2183 32.9433 46.2155 32.9433 46.2827H33.7604ZM33.5321 45.7397L33.9544 45.0401C33.6384 44.8493 33.2842 44.7846 32.946 44.7846V45.6018V46.419C33.0847 46.419 33.1212 46.4463 33.1097 46.4393L33.5321 45.7397ZM32.946 45.6018V44.7846H32.7133V45.6018V46.419H32.946V45.6018ZM32.7133 45.6018V44.7846C32.4618 44.7846 32.0157 44.8281 31.705 45.1907L32.3254 45.7225L32.9459 46.2543C32.856 46.3591 32.7587 46.3993 32.7169 46.4123C32.6784 46.4242 32.6705 46.419 32.7133 46.419V45.6018ZM32.3254 45.7225L31.705 45.1907C31.4388 45.5012 31.4048 45.8913 31.4048 46.1362H32.222H33.0392C33.0392 46.0823 33.0444 46.0695 33.0406 46.0844C33.0371 46.0984 33.0172 46.1711 32.9459 46.2543L32.3254 45.7225ZM32.222 46.1362H31.4048V49.1915H32.222H33.0392V46.1362H32.222ZM41.1606 44.9166L40.4934 45.3885L40.4956 45.3916L41.1606 44.9166ZM41.6432 45.7742L40.9028 46.1201L40.9063 46.1274L41.6432 45.7742ZM42.5439 48.2004L41.7575 48.4228L41.7593 48.429L42.5439 48.2004ZM42.992 50.5275L43.8091 50.512L43.809 50.5048L43.8087 50.4975L42.992 50.5275ZM41.5312 50.5533L40.7145 50.5825L40.7147 50.5881L41.5312 50.5533ZM41.376 49.3812L42.1773 49.2209L42.046 48.564H41.376V49.3812ZM39.0231 49.3812V48.564H38.3395L38.2188 49.2368L39.0231 49.3812ZM38.8852 50.5533L39.7017 50.5881L39.7019 50.5815L38.8852 50.5533ZM37.5148 50.7128L36.9626 51.3152L36.9768 51.3282L36.9916 51.3405L37.5148 50.7128ZM37.4674 50.5533L36.651 50.5165L36.6508 50.5219L37.4674 50.5533ZM37.6053 49.4673L36.8035 49.3093L36.8027 49.3137L37.6053 49.4673ZM38.3379 46.9205L39.1037 47.2057L39.1043 47.204L38.3379 46.9205ZM39.3075 44.9166L39.9725 45.3916L39.9747 45.3885L39.3075 44.9166ZM39.5704 44.6581L39.1626 43.9498L39.1532 43.9554L39.5704 44.6581ZM40.1866 45.9379V45.1208H39.7351L39.4948 45.5031L40.1866 45.9379ZM39.2558 48.3124L38.4649 48.107L38.1992 49.1296H39.2558V48.3124ZM41.1261 48.3124V49.1296H42.196L41.9145 48.0974L41.1261 48.3124ZM40.2125 45.9379L40.922 45.5325L40.6867 45.1208H40.2125V45.9379ZM41.1606 44.9166L40.4956 45.3916C40.6153 45.5592 40.7521 45.7976 40.9028 46.1201L41.6432 45.7742L42.3836 45.4283C42.2068 45.0498 42.0219 44.7165 41.8255 44.4416L41.1606 44.9166ZM41.6432 45.7742L40.9063 46.1274C41.0608 46.4498 41.2122 46.8088 41.3601 47.2057L42.1259 46.9205L42.8917 46.6353C42.7292 46.199 42.5589 45.7939 42.3801 45.421L41.6432 45.7742ZM42.1259 46.9205L41.3601 47.2057C41.5073 47.6012 41.6399 48.0069 41.7575 48.4228L42.5439 48.2004L43.3302 47.9779C43.2008 47.5205 43.0546 47.0729 42.8917 46.6353L42.1259 46.9205ZM42.5439 48.2004L41.7593 48.429C41.8798 48.8425 41.9774 49.2377 42.0528 49.6147L42.8541 49.4544L43.6555 49.2942C43.57 48.8668 43.4608 48.4259 43.3284 47.9718L42.5439 48.2004ZM42.8541 49.4544L42.0528 49.6147C42.1271 49.9863 42.1659 50.299 42.1754 50.5574L42.992 50.5275L43.8087 50.4975C43.7952 50.1296 43.742 49.727 43.6555 49.2942L42.8541 49.4544ZM42.992 50.5275L42.175 50.5429C42.1744 50.5098 42.177 50.3266 42.3368 50.1502C42.5082 49.9609 42.7137 49.9387 42.7852 49.9387V50.7559V51.573C42.9975 51.573 43.3078 51.5128 43.5482 51.2473C43.7769 50.9948 43.8126 50.6974 43.8091 50.512L42.992 50.5275ZM42.7852 50.7559V49.9387H41.7423V50.7559V51.573H42.7852V50.7559ZM41.7423 50.7559V49.9387C41.8036 49.9387 41.9866 49.9549 42.1539 50.1155C42.3212 50.2759 42.345 50.4578 42.3476 50.5186L41.5312 50.5533L40.7147 50.5881C40.723 50.7838 40.7849 51.067 41.0226 51.295C41.2603 51.523 41.5461 51.573 41.7423 51.573V50.7559ZM41.5312 50.5533L42.3478 50.5242C42.3342 50.1434 42.2744 49.7062 42.1773 49.2209L41.376 49.3812L40.5747 49.5414C40.6615 49.9755 40.7051 50.3197 40.7145 50.5825L41.5312 50.5533ZM41.376 49.3812V48.564H39.0231V49.3812V50.1984H41.376V49.3812ZM39.0231 49.3812L38.2188 49.2368C38.1337 49.7105 38.0817 50.1418 38.0685 50.5252L38.8852 50.5533L39.7019 50.5815C39.7117 50.2984 39.7516 49.9481 39.8274 49.5255L39.0231 49.3812ZM38.8852 50.5533L38.0687 50.5186C38.0717 50.4491 38.0997 50.2632 38.2721 50.1043C38.4389 49.9506 38.6153 49.9387 38.6654 49.9387V50.7559V51.573C38.8563 51.573 39.1397 51.5273 39.3797 51.3062C39.6254 51.0798 39.6929 50.7926 39.7016 50.5881L38.8852 50.5533ZM38.6654 50.7559V49.9387H37.6441V50.7559V51.573H38.6654V50.7559ZM37.6441 50.7559V49.9387C37.7528 49.9387 37.9036 49.973 38.038 50.085L37.5148 50.7128L36.9916 51.3405C37.195 51.51 37.4319 51.573 37.6441 51.573V50.7559ZM37.5148 50.7128L38.067 50.1104C38.2925 50.3171 38.2849 50.5614 38.284 50.5847L37.4674 50.5533L36.6508 50.5219C36.6442 50.6946 36.6681 51.0452 36.9626 51.3152L37.5148 50.7128ZM37.4674 50.5533L38.2838 50.5901C38.2959 50.3198 38.3357 49.998 38.4079 49.621L37.6053 49.4673L36.8027 49.3137C36.7197 49.7468 36.6676 50.149 36.651 50.5165L37.4674 50.5533ZM37.6053 49.4673L38.407 49.6254C38.4825 49.2428 38.5801 48.8436 38.7005 48.4276L37.9156 48.2004L37.1306 47.9732C36.9982 48.4306 36.889 48.876 36.8035 49.3093L37.6053 49.4673ZM37.9156 48.2004L38.7005 48.4276C38.8214 48.01 38.9558 47.6028 39.1037 47.2057L38.3379 46.9205L37.5721 46.6353C37.4097 47.0714 37.2626 47.5174 37.1306 47.9732L37.9156 48.2004ZM38.3379 46.9205L39.1043 47.204C39.2521 46.8046 39.4033 46.4447 39.5575 46.1231L38.8205 45.7699L38.0836 45.4167C37.9045 45.7903 37.734 46.1975 37.5714 46.637L38.3379 46.9205ZM38.8205 45.7699L39.5575 46.1231C39.7114 45.802 39.8506 45.5622 39.9725 45.3916L39.3075 44.9166L38.6425 44.4416C38.4484 44.7135 38.263 45.0425 38.0836 45.4167L38.8205 45.7699ZM39.3075 44.9166L39.9747 45.3885C39.993 45.3626 40.0049 45.35 40.0088 45.3462C40.0125 45.3426 40.0059 45.3498 39.9876 45.3607L39.5704 44.6581L39.1532 43.9554C38.9346 44.0852 38.768 44.2642 38.6403 44.4447L39.3075 44.9166ZM39.5704 44.6581L39.9781 45.3663C39.9205 45.3994 39.8879 45.3934 39.9194 45.3934V44.5762V43.759C39.6752 43.759 39.4098 43.8075 39.1626 43.9499L39.5704 44.6581ZM39.9194 44.5762V45.3934H40.54V44.5762V43.759H39.9194V44.5762ZM40.54 44.5762V45.3934C40.5778 45.3934 40.5455 45.4007 40.4856 45.3663L40.8934 44.6581L41.3011 43.9499C41.0516 43.8062 40.7837 43.759 40.54 43.759V44.5762ZM40.8934 44.6581L40.4856 45.3663C40.4676 45.3559 40.4605 45.3485 40.463 45.3509C40.4657 45.3535 40.4764 45.3645 40.4934 45.3885L41.1606 44.9166L41.8277 44.4447C41.6969 44.2597 41.5257 44.0792 41.3011 43.9499L40.8934 44.6581ZM40.1866 45.9379L39.4948 45.5031C39.2697 45.8612 39.0731 46.2733 38.9005 46.7315L39.6652 47.0196L40.4299 47.3077C40.5733 46.927 40.7243 46.6181 40.8785 46.3728L40.1866 45.9379ZM39.6652 47.0196L38.9005 46.7315C38.7321 47.1786 38.5869 47.6371 38.4649 48.107L39.2558 48.3124L40.0467 48.5179C40.1545 48.1029 40.2823 47.6995 40.4299 47.3077L39.6652 47.0196ZM39.2558 48.3124V49.1296H41.1261V48.3124V47.4952H39.2558V48.3124ZM41.1261 48.3124L41.9145 48.0974C41.7872 47.6308 41.64 47.1755 41.4728 46.7315L40.7081 47.0196L39.9433 47.3077C40.0921 47.7026 40.2236 48.1092 40.3377 48.5274L41.1261 48.3124ZM40.7081 47.0196L41.4728 46.7315C41.3036 46.2825 41.121 45.8807 40.922 45.5325L40.2125 45.9379L39.503 46.3434C39.6487 46.5985 39.7965 46.9178 39.9433 47.3077L40.7081 47.0196ZM40.2125 45.9379V45.1208H40.1866V45.9379V46.7551H40.2125V45.9379ZM45.3803 50.7085L44.8025 51.2863L44.815 51.2989L44.8281 51.3109L45.3803 50.7085ZM45.4277 44.6968L46.0498 45.2268L46.0545 45.2212L46.0592 45.2155L45.4277 44.6968ZM46.5913 44.6365L46.3485 45.4168L46.3587 45.42L46.369 45.4229L46.5913 44.6365ZM47.0093 44.8951L46.4555 45.496L46.4613 45.5013L47.0093 44.8951ZM47.5264 45.5242L46.8528 45.9869L46.8582 45.9947L47.5264 45.5242ZM48.2418 46.6792L47.532 47.0842L47.5331 47.086L48.2418 46.6792ZM48.8839 47.7953L48.1761 48.2039L48.1793 48.2093L48.8839 47.7953ZM49.4613 48.7477L48.7861 49.208L48.7931 49.2183L48.8004 49.2283L49.4613 48.7477ZM49.5734 48.9028L48.9084 49.3778L50.3906 51.4528V48.9028H49.5734ZM49.6122 45.0761L48.9275 44.63L48.9192 44.6427L48.9114 44.6556L49.6122 45.0761ZM50.125 44.4771L49.6145 43.8389L49.5856 43.8621L49.5589 43.8877L50.125 44.4771ZM50.3361 44.4771L50.8916 43.8777L50.8904 43.8766L50.3361 44.4771ZM50.6335 44.7916L49.9954 45.3021L50.0034 45.3122L50.0117 45.322L50.6335 44.7916ZM50.849 45.0761L51.5612 44.6754L51.5475 44.6511L51.5322 44.6277L50.849 45.0761ZM49.7544 50.6955L49.4959 51.4708L49.5037 51.4734L49.5116 51.4758L49.7544 50.6955ZM49.3148 50.4111L48.764 51.0148L48.7699 51.0201L49.3148 50.4111ZM47.9229 48.4331L47.2152 48.8418L47.2166 48.8442L47.9229 48.4331ZM47.2808 47.3299L46.5735 47.7393L46.5768 47.7449L47.2808 47.3299ZM46.9188 46.7136L46.2155 47.1299L46.2193 47.1362L46.9188 46.7136ZM46.7378 46.4206L46.0526 46.866L46.0579 46.8741L46.0633 46.8821L46.7378 46.4206ZM46.643 46.2913L47.2504 45.7446L45.8258 44.1618V46.2913H46.643ZM46.643 50.5275H45.8258C45.8258 50.5208 45.8259 50.4772 45.8443 50.4129C45.8632 50.3469 45.9082 50.2358 46.0134 50.1306L46.5913 50.7085L47.1691 51.2863C47.4389 51.0165 47.4602 50.6771 47.4602 50.5275H46.643ZM46.5913 50.7085L46.0134 50.1306C46.1257 50.0183 46.2439 49.9736 46.3078 49.9561C46.3714 49.9386 46.414 49.9387 46.4189 49.9387V50.7559V51.573C46.5507 51.573 46.8964 51.559 47.1691 51.2863L46.5913 50.7085ZM46.4189 50.7559V49.9387H45.5527V50.7559V51.573H46.4189V50.7559ZM45.5527 50.7559V49.9387C45.5619 49.9387 45.6044 49.9391 45.666 49.9561C45.7289 49.9734 45.8316 50.0136 45.9325 50.1061L45.3803 50.7085L44.8281 51.3109C45.0899 51.5508 45.4034 51.573 45.5527 51.573V50.7559ZM45.3803 50.7085L45.9582 50.1306C46.0634 50.2358 46.1084 50.3469 46.1273 50.4129C46.1457 50.4772 46.1458 50.5208 46.1458 50.5275H45.3286H44.5114C44.5114 50.6771 44.5327 51.0165 44.8025 51.2863L45.3803 50.7085ZM45.3286 50.5275H46.1458V45.0674H45.3286H44.5114V50.5275H45.3286ZM45.3286 45.0674H46.1458C46.1458 45.0324 46.1496 45.0335 46.1428 45.0588C46.1357 45.0853 46.113 45.1526 46.0498 45.2268L45.4277 44.6968L44.8056 44.1669C44.5534 44.463 44.5114 44.823 44.5114 45.0674H45.3286ZM45.4277 44.6968L46.0592 45.2155C45.9802 45.3117 45.8896 45.3586 45.8315 45.3787C45.7795 45.3967 45.7544 45.3934 45.7768 45.3934V44.5762V43.759C45.5115 43.759 45.091 43.8193 44.7963 44.1781L45.4277 44.6968ZM45.7768 44.5762V45.3934H46.1776V44.5762V43.759H45.7768V44.5762ZM46.1776 44.5762V45.3934C46.2485 45.3934 46.304 45.403 46.3485 45.4168L46.5913 44.6365L46.834 43.8562C46.62 43.7896 46.3997 43.759 46.1776 43.759V44.5762ZM46.5913 44.6365L46.369 45.4229C46.3495 45.4174 46.3479 45.4136 46.365 45.4241C46.3822 45.4348 46.4126 45.4565 46.4555 45.496L47.0093 44.8951L47.5631 44.2941C47.3616 44.1085 47.1122 43.9345 46.8135 43.8501L46.5913 44.6365ZM47.0093 44.8951L46.4613 45.5013C46.5415 45.5738 46.6719 45.7235 46.8528 45.9869L47.5264 45.5242L48.2 45.0616C47.9902 44.7562 47.7758 44.4864 47.5572 44.2888L47.0093 44.8951ZM47.5264 45.5242L46.8582 45.9947C47.0352 46.2461 47.2592 46.6061 47.532 47.0842L48.2418 46.6792L48.9515 46.2742C48.667 45.7754 48.414 45.3655 48.1946 45.0538L47.5264 45.5242ZM48.2418 46.6792L47.5331 47.086C47.8004 47.5517 48.0148 47.9244 48.1761 48.2039L48.8839 47.7953L49.5916 47.3867C49.4312 47.1089 49.2175 46.7375 48.9505 46.2723L48.2418 46.6792ZM48.8839 47.7953L48.1793 48.2093C48.3437 48.489 48.4725 48.7058 48.5648 48.8576L49.2631 48.4331L49.9614 48.0086C49.8755 47.8674 49.7516 47.6589 49.5884 47.3813L48.8839 47.7953ZM49.2631 48.4331L48.5648 48.8576C48.6545 49.0051 48.7301 49.1258 48.7861 49.208L49.4613 48.7477L50.1365 48.2873C50.1064 48.2432 50.0498 48.1541 49.9614 48.0086L49.2631 48.4331ZM49.4613 48.7477L48.8004 49.2283C48.8457 49.2906 48.8816 49.3402 48.9084 49.3778L49.5734 48.9028L50.2383 48.4278C50.2077 48.385 50.1689 48.3312 50.1222 48.267L49.4613 48.7477ZM49.5734 48.9028H50.3906V45.2657H49.5734H48.7562V48.9028H49.5734ZM49.5734 45.2657H50.3906C50.3906 45.2657 50.3906 45.2703 50.3898 45.2788C50.3891 45.2872 50.3874 45.3011 50.3837 45.3196C50.3766 45.3541 50.3589 45.4199 50.3129 45.4965L49.6122 45.0761L48.9114 44.6556C48.7745 44.8838 48.7562 45.1211 48.7562 45.2657H49.5734ZM49.6122 45.0761L50.2968 45.5222C50.3772 45.3988 50.5035 45.2465 50.6911 45.0664L50.125 44.4771L49.5589 43.8877C49.3097 44.127 49.0941 44.3741 48.9275 44.63L49.6122 45.0761ZM50.125 44.4771L50.6355 45.1152C50.6257 45.123 50.5925 45.1488 50.5378 45.175C50.4856 45.2001 50.3786 45.2425 50.2327 45.2425V44.4253V43.6082C49.9114 43.6082 49.6878 43.7803 49.6145 43.8389L50.125 44.4771ZM50.2327 44.4253V45.2425C49.965 45.2425 49.8083 45.102 49.7818 45.0775L50.3361 44.4771L50.8904 43.8766C50.7893 43.7832 50.5636 43.6082 50.2327 43.6082V44.4253ZM50.3361 44.4771L49.7806 45.0764C49.8756 45.1645 49.9455 45.2398 49.9954 45.3021L50.6335 44.7916L51.2716 44.2812C51.1606 44.1424 51.0322 44.008 50.8916 43.8777L50.3361 44.4771ZM50.6335 44.7916L50.0117 45.322C50.0764 45.3978 50.127 45.4653 50.1657 45.5244L50.849 45.0761L51.5322 44.6277C51.4503 44.5029 51.3572 44.3808 51.2552 44.2613L50.6335 44.7916ZM50.849 45.0761L50.1367 45.4767C50.1 45.4114 50.0843 45.3553 50.0774 45.3217C50.0706 45.2881 50.0705 45.2676 50.0705 45.2657H50.8877H51.7049C51.7049 45.1125 51.6828 44.8916 51.5612 44.6754L50.849 45.0761ZM50.8877 45.2657H50.0705V50.3982H50.8877H51.7049V45.2657H50.8877ZM50.8877 50.3982H50.0705C50.0705 50.4155 50.0685 50.3963 50.0796 50.3543C50.0909 50.3118 50.1223 50.222 50.2055 50.1291L50.8145 50.674L51.4235 51.2189C51.6769 50.9357 51.7049 50.589 51.7049 50.3982H50.8877ZM50.8145 50.674L50.2055 50.1291C50.304 50.019 50.4119 49.9724 50.4716 49.9541C50.5282 49.9367 50.5598 49.9387 50.5473 49.9387V50.7559V51.573C50.7423 51.573 51.1354 51.5409 51.4235 51.2189L50.8145 50.674ZM50.5473 50.7559V49.9387H50.1336V50.7559V51.573H50.5473V50.7559ZM50.1336 50.7559V49.9387C50.0999 49.9387 50.0553 49.9333 49.9971 49.9152L49.7544 50.6955L49.5116 51.4758C49.712 51.5382 49.9202 51.573 50.1336 51.573V50.7559ZM49.7544 50.6955L50.0128 49.9203C50.0288 49.9256 50.0222 49.9259 49.9915 49.906C49.9615 49.8867 49.9177 49.854 49.8597 49.8021L49.3148 50.4111L48.7699 51.0201C48.9719 51.2009 49.2157 51.3774 49.4959 51.4708L49.7544 50.6955ZM49.3148 50.4111L49.8656 49.8074C49.764 49.7148 49.6089 49.537 49.3976 49.2417L48.733 49.7173L48.0685 50.1929C48.3054 50.5239 48.5381 50.8087 48.764 51.0148L49.3148 50.4111ZM48.733 49.7173L49.3976 49.2417C49.1947 48.9582 48.9392 48.5548 48.6291 48.022L47.9229 48.4331L47.2166 48.8442C47.5386 49.3974 47.8232 49.8501 48.0685 50.1929L48.733 49.7173ZM47.9229 48.4331L48.6305 48.0243C48.3628 47.5609 48.1474 47.1908 47.9847 46.9149L47.2808 47.3299L46.5768 47.7449C46.7359 48.0148 46.9486 48.3802 47.2152 48.8418L47.9229 48.4331ZM47.2808 47.3299L47.988 46.9204C47.8293 46.6464 47.7056 46.4357 47.6182 46.2911L46.9188 46.7136L46.2193 47.1362C46.2986 47.2674 46.4162 47.4675 46.5735 47.7393L47.2808 47.3299ZM46.9188 46.7136L47.622 46.2974C47.539 46.1571 47.4664 46.0384 47.4122 45.9591L46.7378 46.4206L46.0633 46.8821C46.0838 46.912 46.1319 46.9886 46.2155 47.1299L46.9188 46.7136ZM46.7378 46.4206L47.4229 45.9752C47.3772 45.9048 47.3185 45.8203 47.2504 45.7446L46.643 46.2913L46.0356 46.838C46.0297 46.8315 46.0262 46.8272 46.0253 46.8261C46.0243 46.8248 46.0249 46.8255 46.0271 46.8284C46.0317 46.8347 46.0401 46.8467 46.0526 46.866L46.7378 46.4206ZM46.643 46.2913H45.8258V50.5275H46.643H47.4602V46.2913H46.643Z" fill="#006970" mask="url(#path-3-outside-1_48_411)"/>
<path d="M8.86794 101.492C7.79663 101.492 6.82272 101.332 5.9462 101.012C5.06967 100.692 4.31837 100.233 3.69228 99.6348C3.07315 99.0365 2.59315 98.3061 2.25228 97.4435C1.91141 96.5878 1.74098 95.6209 1.74098 94.5426C1.74098 93.4365 1.90098 92.3409 2.22098 91.2557C2.54793 90.1704 3.03489 89.1409 3.68185 88.167L5.7375 89.6591C5.61228 89.833 5.45576 90.0904 5.26794 90.4313C5.08707 90.7722 4.91315 91.1652 4.7462 91.6104C4.57924 92.0557 4.43315 92.5357 4.30793 93.0504C4.18967 93.5652 4.13054 94.0835 4.13054 94.6052C4.13054 95.2243 4.25924 95.7878 4.51663 96.2957C4.78098 96.8035 5.13576 97.2383 5.58098 97.6C6.0262 97.9687 6.54098 98.2539 7.12533 98.4557C7.71663 98.6643 8.33924 98.7757 8.99315 98.7896C9.02794 98.7896 9.06272 98.7896 9.0975 98.7896C9.58446 98.7896 10.061 98.7409 10.5271 98.6435C11.0001 98.553 11.4488 98.4104 11.8732 98.2157C12.2975 98.0278 12.6836 97.7983 13.0314 97.527C13.3792 97.2557 13.6749 96.953 13.9184 96.6191C14.1618 96.2852 14.3497 95.9235 14.4818 95.5339C14.5862 95.2 14.6384 94.8522 14.6384 94.4904C14.6384 94.4348 14.6384 94.3757 14.6384 94.313C14.6245 93.993 14.5688 93.6383 14.4714 93.2487C14.381 92.8522 14.2697 92.4522 14.1375 92.0487C14.0053 91.6452 13.8627 91.2522 13.7097 90.8696C13.5636 90.48 13.4245 90.1357 13.2923 89.8365C13.1601 89.5374 13.0488 89.2974 12.9584 89.1165C12.8679 88.9357 12.8192 88.8452 12.8123 88.8452L15.2645 87.4783C15.2853 87.5061 15.341 87.6209 15.4314 87.8226C15.5218 88.0243 15.6297 88.2887 15.7549 88.6157C15.8801 88.9426 16.0158 89.3183 16.1618 89.7426C16.3079 90.16 16.4436 90.6052 16.5688 91.0783C16.701 91.5443 16.8123 92.0209 16.9027 92.5078C17.0001 92.9948 17.0592 93.4609 17.0801 93.9061C17.0871 94.0591 17.0905 94.2087 17.0905 94.3548C17.0905 94.8348 17.0418 95.3461 16.9445 95.8887C16.8471 96.4383 16.6627 96.9948 16.3914 97.5583C16.1271 98.1217 15.7758 98.6435 15.3375 99.1235C14.8992 99.6035 14.3705 100.017 13.7514 100.365C13.1392 100.72 12.4262 100.995 11.6123 101.19C10.7984 101.391 9.88359 101.492 8.86794 101.492ZM11.4975 87.2487L9.49402 89.2522L7.50098 87.2487L9.49402 85.2557L11.4975 87.2487ZM24.5559 94.313H24.1385C22.7264 94.313 21.6551 93.9583 20.9246 93.2487C20.1942 92.5391 19.8255 91.4678 19.8185 90.0348C19.8185 89.8122 19.8255 89.447 19.8394 88.9391C19.8533 88.4243 19.8603 87.7983 19.8603 87.0609C19.8603 86.6226 19.8568 86.153 19.8499 85.6522C19.8429 85.1443 19.8325 84.6296 19.8185 84.1078C19.8046 83.5791 19.7838 83.0539 19.7559 82.5322C19.7351 82.0035 19.7072 81.4957 19.6725 81.0087C19.6377 80.5148 19.5959 80.0557 19.5472 79.6313C19.4985 79.2 19.4429 78.8209 19.3803 78.4939L21.9994 77.7113C22.0759 78.1148 22.1455 78.6087 22.2081 79.193C22.2707 79.7704 22.3264 80.3896 22.3751 81.0504C22.4238 81.7113 22.4585 82.3861 22.4794 83.0748C22.5072 83.7565 22.5212 84.4 22.5212 85.0052C22.5212 85.3739 22.5246 85.767 22.5316 86.1843C22.5385 86.5948 22.542 86.9565 22.542 87.2696C22.542 87.5339 22.5385 87.7843 22.5316 88.0209C22.5316 88.2504 22.5281 88.473 22.5212 88.6887C22.5212 88.9043 22.5177 89.1165 22.5107 89.3252C22.5107 89.5339 22.5107 89.7461 22.5107 89.9617C22.5107 90.0174 22.5107 90.073 22.5107 90.1287C22.5107 90.3791 22.5351 90.6017 22.5838 90.7965C22.6394 90.9913 22.7333 91.1548 22.8655 91.287C22.9977 91.4122 23.1646 91.5026 23.3664 91.5583C23.5751 91.6139 23.8151 91.6417 24.0864 91.6417H24.5559V94.313ZM24.1429 91.6417H25.8229C26.1498 91.6417 26.4837 91.6243 26.8246 91.5896C27.1724 91.5478 27.4855 91.4678 27.7637 91.3496C28.042 91.2243 28.2681 91.047 28.442 90.8174C28.6229 90.5878 28.7133 90.2817 28.7133 89.8991C28.7133 89.7183 28.675 89.4643 28.5985 89.1374C28.522 88.8104 28.4211 88.4487 28.2959 88.0522C28.1707 87.6557 28.0211 87.2452 27.8472 86.8209C27.6803 86.3965 27.5029 86 27.315 85.6313L29.7255 84.4417C29.8994 84.8383 30.0733 85.2591 30.2472 85.7043C30.4211 86.1496 30.5742 86.6087 30.7063 87.0817C30.8455 87.5478 30.9568 88.0174 31.0403 88.4904C31.1237 88.9635 31.1655 89.4261 31.1655 89.8783C31.1655 90.6574 31.0333 91.3287 30.769 91.8922C30.5046 92.4487 30.1359 92.9078 29.6629 93.2696C29.1898 93.6243 28.6229 93.8852 27.962 94.0522C27.3081 94.2261 26.5881 94.313 25.802 94.313H24.1429V91.6417ZM29.5168 97.7043L27.5133 99.7078L25.5203 97.7043L27.5133 95.7113L29.5168 97.7043ZM55.7838 94.313C55.2064 94.313 54.6812 94.2643 54.2082 94.167C53.7421 94.0696 53.3177 93.9165 52.9351 93.7078C52.5525 93.4922 52.2116 93.2209 51.9125 92.8939C51.6134 92.56 51.349 92.16 51.1195 91.6939C49.2064 93.4609 46.3438 94.3443 42.5316 94.3443C40.3543 94.3304 38.5525 94.0626 37.1264 93.5409C35.7073 93.0122 34.6603 92.2017 33.9856 91.1096C33.6934 90.5878 33.4916 90.0452 33.3803 89.4817C33.2969 89.0713 33.2551 88.6609 33.2551 88.2504C33.2551 88.0904 33.2656 87.8296 33.2864 87.4678C33.3143 87.1061 33.4151 86.6539 33.589 86.1113C33.7629 85.5617 33.9925 85.0435 34.2777 84.5565L36.2916 85.8191C36.0899 86.153 35.9229 86.487 35.7908 86.8209C35.6586 87.1548 35.5751 87.4887 35.5403 87.8226C35.5264 87.9478 35.5195 88.073 35.5195 88.1983C35.5195 88.407 35.5438 88.647 35.5925 88.9183C35.6482 89.1896 35.7803 89.4887 35.989 89.8157C36.1838 90.1426 36.4795 90.4209 36.876 90.6504C37.2725 90.88 37.7525 91.0678 38.316 91.2139C38.8864 91.36 39.5264 91.4678 40.236 91.5374C40.9456 91.607 41.7108 91.6417 42.5316 91.6417C43.276 91.6417 43.9821 91.6139 44.6499 91.5583C45.3177 91.5026 45.9369 91.4157 46.5073 91.2974C47.0847 91.1722 47.6064 91.0157 48.0725 90.8278C48.5386 90.633 48.9386 90.3965 49.2725 90.1183C49.5786 89.8817 49.8256 89.607 50.0134 89.2939C50.2012 88.9809 50.3577 88.6539 50.4829 88.313C50.6082 87.9652 50.7125 87.6104 50.796 87.2487C50.8795 86.887 50.9699 86.5391 51.0673 86.2052L53.4673 86.8522C53.3351 87.2209 53.2308 87.5965 53.1543 87.9791C53.0847 88.327 53.0499 88.6643 53.0499 88.9913C53.0499 89.0261 53.0499 89.1409 53.0499 89.3357C53.0499 89.5235 53.0986 89.7739 53.196 90.087C53.2934 90.393 53.4499 90.6643 53.6656 90.9009C53.8812 91.1304 54.1629 91.3113 54.5108 91.4435C54.8656 91.5757 55.2969 91.6417 55.8047 91.6417H56.1803V94.313H55.7838ZM43.2099 83.7113L41.436 85.4852L39.6412 83.7009L41.4151 81.9165L43.2099 83.7113ZM47.1543 83.7217L45.3803 85.5061L43.5856 83.7113L45.3595 81.9374L47.1543 83.7217ZM56.0105 91.6417C56.7409 91.6417 57.4435 91.6209 58.1183 91.5791C58.7931 91.5304 59.4088 91.4643 59.9653 91.3809C60.5218 91.2974 61.0018 91.1965 61.4053 91.0783C61.8088 90.96 62.1114 90.8278 62.3131 90.6817H61.2487C60.6366 90.6817 60.0522 90.6052 59.4957 90.4522C58.9461 90.2922 58.4627 90.0557 58.0453 89.7426C57.6279 89.4296 57.294 89.04 57.0435 88.5739C56.8001 88.1009 56.6783 87.5513 56.6783 86.9252C56.6783 86.5565 56.7166 86.1774 56.7931 85.7878C56.8696 85.3983 56.9844 85.0191 57.1374 84.6504C57.2905 84.2817 57.4748 83.9339 57.6905 83.607C57.9061 83.28 58.1531 82.9948 58.4314 82.7513C58.7096 82.5009 59.0157 82.3061 59.3496 82.167C59.6835 82.0209 60.0453 81.9478 60.4348 81.9478C60.9148 81.9478 61.3635 82.0487 61.7809 82.2504C62.1983 82.4522 62.5774 82.727 62.9183 83.0748C63.2592 83.4157 63.5618 83.8122 63.8261 84.2643C64.0905 84.7165 64.3131 85.193 64.494 85.6939C64.6748 86.1948 64.8105 86.7061 64.9009 87.2278C64.9983 87.7426 65.047 88.233 65.047 88.6991C65.047 89.4922 64.9357 90.1809 64.7131 90.7652C64.4974 91.3496 64.1914 91.8504 63.7948 92.2678C63.4053 92.6852 62.9357 93.0261 62.3861 93.2904C61.8435 93.5548 61.2418 93.7635 60.5809 93.9165C59.9201 94.0696 59.2105 94.1739 58.4522 94.2296C57.7009 94.2852 56.9218 94.313 56.1148 94.313H55.7601V91.6417H56.0105ZM60.4348 84.64C60.4001 84.633 60.3653 84.6296 60.3305 84.6296C60.1914 84.6296 60.0314 84.6852 59.8505 84.7965C59.6696 84.9078 59.4957 85.0678 59.3288 85.2765C59.1618 85.4852 59.0261 85.7217 58.9218 85.9861C58.8174 86.2435 58.7653 86.4974 58.7653 86.7478C58.7653 86.7617 58.7653 86.7757 58.7653 86.7896C58.7653 87.04 58.8209 87.2452 58.9322 87.4052C59.0435 87.5583 59.1931 87.6765 59.3809 87.76C59.5757 87.8435 59.7983 87.9026 60.0488 87.9374C60.3061 87.9722 60.5774 87.9965 60.8627 88.0104C61.0505 88.0174 61.2453 88.0209 61.447 88.0209C61.5444 88.0209 61.694 88.0209 61.8957 88.0209C62.1044 88.0139 62.3166 88.0035 62.5322 87.9896C62.4696 87.7391 62.3792 87.4296 62.2609 87.0609C62.1496 86.6852 62.007 86.3235 61.8331 85.9757C61.6661 85.6209 61.4644 85.3148 61.2279 85.0574C60.9983 84.8 60.734 84.6609 60.4348 84.64ZM60.1844 78.807L58.4105 80.5809L56.6157 78.7965L58.3896 77.0122L60.1844 78.807ZM64.1288 78.8174L62.3548 80.6017L60.5601 78.807L62.334 77.033L64.1288 78.8174ZM71.2177 87.5304C71.0368 87.5304 70.8421 87.607 70.6334 87.76C70.4247 87.913 70.2334 88.1113 70.0595 88.3548C69.8855 88.5913 69.7395 88.8557 69.6212 89.1478C69.5099 89.44 69.4542 89.7252 69.4542 90.0035C69.4542 90.2957 69.5203 90.5391 69.6525 90.7339C69.7916 90.9217 69.9655 91.0748 70.1742 91.193C70.3899 91.3113 70.6299 91.4017 70.8942 91.4643C71.1655 91.52 71.4334 91.5617 71.6977 91.5896C71.8438 91.5965 72.0038 91.6035 72.1777 91.6104C72.3516 91.6174 72.529 91.6243 72.7099 91.6313C72.8977 91.6313 73.0821 91.6348 73.2629 91.6417C73.4438 91.6417 73.6142 91.6417 73.7742 91.6417C73.7534 91.3843 73.7012 91.1061 73.6177 90.807C73.5412 90.5009 73.4403 90.1948 73.3151 89.8887C73.1899 89.5826 73.0473 89.2904 72.8873 89.0122C72.7273 88.727 72.5534 88.4765 72.3655 88.2609C72.1847 88.0383 71.9968 87.8609 71.8021 87.7287C71.6073 87.5965 71.4125 87.5304 71.2177 87.5304ZM66.4803 99.0087C67.5029 98.807 68.4247 98.5357 69.2455 98.1948C70.0734 97.8609 70.7899 97.4852 71.3951 97.0678C72.0003 96.6504 72.4908 96.2052 72.8664 95.7322C73.249 95.2591 73.5029 94.7861 73.6282 94.313C73.0647 94.313 72.5151 94.2957 71.9795 94.2609C71.4438 94.2261 70.936 94.1565 70.456 94.0522C69.9829 93.9548 69.5447 93.8157 69.1412 93.6348C68.7447 93.447 68.4003 93.2035 68.1082 92.9043C67.8229 92.5983 67.6003 92.2296 67.4403 91.7983C67.2803 91.367 67.2003 90.8522 67.2003 90.2539C67.2003 89.8713 67.2421 89.4713 67.3255 89.0539C67.409 88.6365 67.5273 88.2296 67.6803 87.833C67.8403 87.4296 68.0351 87.0504 68.2647 86.6957C68.4942 86.3339 68.7586 86.0174 69.0577 85.7461C69.3568 85.4678 69.6873 85.2487 70.049 85.0887C70.4108 84.9287 70.8003 84.8487 71.2177 84.8487C72.296 84.8487 73.2803 85.3287 74.1708 86.2887C74.4908 86.6435 74.776 87.047 75.0264 87.4991C75.2838 87.9443 75.4995 88.4243 75.6734 88.9391C75.8542 89.447 75.9899 89.9791 76.0803 90.5357C76.1777 91.0922 76.2264 91.6557 76.2264 92.2261C76.2264 93.1165 76.1116 93.9478 75.8821 94.72C75.6595 95.4991 75.3429 96.2157 74.9325 96.8696C74.529 97.5235 74.0455 98.1113 73.4821 98.633C72.9186 99.1617 72.2995 99.6243 71.6247 100.021C70.9499 100.417 70.2299 100.748 69.4647 101.012C68.6995 101.283 67.9134 101.485 67.1064 101.617L66.4803 99.0087Z" fill="black"/>
</svg>
